<?xml version="1.0" encoding="utf-8"?>
<!-- Generator: Adobe Illustrator 27.5.0, SVG Export Plug-In . SVG Version: 6.00 Build 0)  -->
<svg version="1.1" id="Capa_1" xmlns="http://www.w3.org/2000/svg" xmlns:xlink="http://www.w3.org/1999/xlink" x="0px" y="0px"
	 viewBox="0 0 359 425.2" style="enable-background:new 0 0 359 425.2;" xml:space="preserve">
<rect x="0" y="0" style="fill:#DADADA;" width="359" height="425.2"/>
<path style="fill:#B2B2B2;" d="M121.914,365.744c0,2.671,42.372,4.836,94.64,4.836c52.268,0,94.64-2.165,94.64-4.836
	c0-2.671-42.372-4.837-94.64-4.837C164.286,360.907,121.914,363.073,121.914,365.744z"/>
<g>
	<polygon style="fill:#AAAAA9;" points="234.948,192.7 298.243,192.7 285.286,342.628 216.441,342.628 216.441,253.705 	"/>
	<polygon style="fill:#454F56;" points="235.374,207.597 283.727,207.597 274.039,246.388 223.755,246.388 	"/>
	<polygon style="fill:#838382;" points="292.983,192.7 303.792,192.7 303.792,342.628 280.031,342.628 280.031,255.554 	"/>
	<rect x="133.617" y="351.68" style="fill:#9D9D9C;" width="170.175" height="12.797"/>
	<rect x="126.216" y="339.875" style="fill:#C6C6C6;" width="184.977" height="12.796"/>
	<g>
		<g>
			<path style="fill:#95C11F;" d="M239.792,232.377c-2.533,0-3.8,0-6.335,0c-0.522-0.137-0.77-0.479-0.745-1.029
				c0.75-0.247,1.122-0.371,1.868-0.619c2.025,0,3.034,0,5.057,0C239.698,231.388,239.73,231.718,239.792,232.377z M242.997,219.184
				c-1.985,0-2.976,0-4.961,0c-0.591-0.248-0.884-0.373-1.475-0.622c0.304-0.548,0.749-0.891,1.346-1.028c2.478,0,3.718,0,6.196,0
				C243.664,218.194,243.439,218.526,242.997,219.184z M241.977,224.132c0.235,0.33,0.357,0.494,0.593,0.825
				c-0.431,0.328-0.642,0.495-1.073,0.824c-2.179,0-3.264-0.001-5.444-0.001c-0.238-0.328-0.356-0.495-0.593-0.823
				c0.433-0.331,0.651-0.497,1.085-0.825C238.718,224.132,239.804,224.132,241.977,224.132z M242.154,223.512
				c0.505-1.732,0.76-2.596,1.26-4.328c0.441-0.658,0.662-0.99,1.103-1.65c0.513,0.138,0.758,0.48,0.738,1.03
				c-0.667,2.311-1,3.465-1.668,5.773c-0.214,0.167-0.319,0.249-0.535,0.414C242.693,224.257,242.512,224.008,242.154,223.512z
				 M242.934,225.161c0.117,0.165,0.176,0.248,0.296,0.414c-0.664,2.31-0.997,3.463-1.664,5.773
				c-0.299,0.55-0.751,0.893-1.354,1.029c-0.064-0.659-0.093-0.99-0.156-1.648c0.505-1.732,0.759-2.598,1.259-4.329
				C241.963,225.906,242.287,225.656,242.934,225.161z"/>
			<path style="fill:#95C11F;" d="M248.28,219.596c-0.447,1.567-0.669,2.349-1.113,3.916c-0.64,0.497-0.961,0.742-1.606,1.238
				c-0.12-0.164-0.182-0.246-0.299-0.413c0.612-2.144,0.921-3.214,1.534-5.357C247.39,219.226,247.684,219.348,248.28,219.596z
				 M243.372,230.935c0.616-2.145,0.92-3.215,1.535-5.36c0.213-0.166,0.321-0.249,0.537-0.414c0.36,0.495,0.542,0.742,0.907,1.237
				c-0.447,1.569-0.672,2.351-1.118,3.916C244.488,230.564,244.121,230.688,243.372,230.935z M250.347,232.377
				c-2.535,0-3.802,0-6.334,0c-0.524-0.137-0.779-0.479-0.76-1.029c0.746-0.247,1.118-0.371,1.863-0.619c2.019,0,3.032,0,5.054,0
				C250.239,231.388,250.275,231.718,250.347,232.377z M253.386,219.184c-1.985,0-2.98,0-4.967,0
				c-0.593-0.248-0.889-0.373-1.483-0.62c0.297-0.549,0.739-0.892,1.332-1.03c2.475,0,3.718,0,6.196,0
				C254.033,218.194,253.817,218.526,253.386,219.184z M252.597,223.512c0.48-1.732,0.723-2.596,1.204-4.328
				c0.433-0.658,0.646-0.99,1.078-1.65c0.515,0.138,0.767,0.48,0.752,1.03c-0.637,2.311-0.953,3.465-1.591,5.773
				c-0.213,0.167-0.321,0.249-0.531,0.414C253.143,224.257,252.959,224.008,252.597,223.512z M253.395,225.161
				c0.12,0.165,0.181,0.249,0.304,0.414c-0.638,2.31-0.956,3.463-1.594,5.773c-0.291,0.55-0.735,0.893-1.338,1.029
				c-0.068-0.659-0.105-0.99-0.174-1.648c0.48-1.732,0.721-2.598,1.204-4.331C252.435,225.903,252.753,225.656,253.395,225.161z"/>
			<path style="fill:#95C11F;" d="M258.789,232.377c-0.672,0-1.01,0-1.685,0c0.176-0.659,0.262-0.99,0.439-1.648
				c0.677,0,1.015,0,1.687,0C259.053,231.388,258.965,231.718,258.789,232.377z"/>
			<path style="fill:#95C11F;" d="M269.059,219.596c-0.402,1.567-0.605,2.349-1.01,3.916c-0.627,0.497-0.941,0.744-1.573,1.239
				c-0.123-0.165-0.189-0.247-0.312-0.414c0.557-2.144,0.836-3.214,1.395-5.357C268.159,219.226,268.461,219.348,269.059,219.596z
				 M271.457,232.377c-2.533,0-3.8,0-6.332,0c-0.527-0.137-0.792-0.479-0.787-1.029c0.738-0.247,1.107-0.371,1.846-0.619
				c2.023,0,3.032,0,5.057,0C271.327,231.388,271.368,231.718,271.457,232.377z M274.777,219.184c-2.235,0-3.355,0-5.591,0
				c-0.598-0.248-0.897-0.373-1.5-0.62c0.285-0.549,0.721-0.892,1.309-1.03c2.729,0,4.088,0,6.814,0
				C275.395,218.194,275.192,218.526,274.777,219.184z M273.324,224.132c0.25,0.33,0.375,0.494,0.628,0.823
				c-0.417,0.33-0.628,0.497-1.045,0.827c-2.176,0-3.267,0-5.446,0c-0.25-0.329-0.373-0.496-0.622-0.827
				c0.421-0.329,0.629-0.493,1.048-0.823C270.062,224.132,271.149,224.132,273.324,224.132z M274.319,225.161
				c0.126,0.165,0.187,0.248,0.315,0.414c-0.579,2.31-0.866,3.463-1.441,5.773c-0.279,0.55-0.716,0.893-1.314,1.029
				c-0.089-0.659-0.133-0.99-0.218-1.648c0.438-1.732,0.654-2.598,1.09-4.331C273.378,225.903,273.691,225.656,274.319,225.161z"/>
		</g>
	</g>
	<g>
		<g>
			<rect x="198.88" y="228.756" style="fill:#D7803D;" width="31.231" height="55.559"/>
			<rect x="208.597" y="228.756" style="fill:#EBDED2;" width="9.83" height="16.668"/>
			<rect x="141.271" y="228.756" style="fill:#F6A654;" width="57.609" height="55.559"/>
			<polygon style="opacity:0.5;fill:#FCDCC9;" points="143.532,282.137 143.532,230.935 196.621,230.935 			"/>
			<rect x="209.754" y="228.756" style="fill:#EDEDED;" width="9.486" height="16.051"/>
			<rect x="173.474" y="267.004" style="fill:#70441C;" width="21.254" height="2.637"/>
			<rect x="180.339" y="272.012" style="fill:#70441C;" width="14.389" height="2.631"/>
			
				<rect x="188.931" y="276.227" style="fill:none;stroke:#70441C;stroke-width:1.3091;stroke-linecap:round;stroke-linejoin:round;stroke-miterlimit:10;" width="5.092" height="4.078"/>
			
				<rect x="181.109" y="276.227" style="fill:none;stroke:#70441C;stroke-width:1.3091;stroke-linecap:round;stroke-linejoin:round;stroke-miterlimit:10;" width="5.088" height="4.078"/>
		</g>
		<g>
			<rect x="198.88" y="173.195" style="fill:#CC7335;" width="31.231" height="55.562"/>
			<rect x="208.597" y="173.195" style="fill:#EBDED2;" width="9.83" height="16.67"/>
			<rect x="141.271" y="173.195" style="fill:#E89848;" width="57.609" height="55.562"/>
			<polygon style="opacity:0.5;fill:#FCDCC9;" points="143.532,226.577 143.532,175.376 196.621,175.376 			"/>
			<rect x="209.754" y="173.195" style="fill:#EDEDED;" width="9.486" height="16.052"/>
			<rect x="173.474" y="211.444" style="fill:#70441C;" width="21.254" height="2.635"/>
			<rect x="180.339" y="216.451" style="fill:#70441C;" width="14.389" height="2.633"/>
			
				<rect x="188.931" y="220.667" style="fill:none;stroke:#70441C;stroke-width:1.3091;stroke-linecap:round;stroke-linejoin:round;stroke-miterlimit:10;" width="5.092" height="4.078"/>
			
				<rect x="181.109" y="220.667" style="fill:none;stroke:#70441C;stroke-width:1.3091;stroke-linecap:round;stroke-linejoin:round;stroke-miterlimit:10;" width="5.088" height="4.078"/>
		</g>
		<g>
			<rect x="198.88" y="284.315" style="fill:#CC7335;" width="31.231" height="55.56"/>
			<rect x="208.597" y="284.315" style="fill:#EBDED2;" width="9.83" height="16.667"/>
			<rect x="141.271" y="284.315" style="fill:#E89848;" width="57.609" height="55.56"/>
			<polygon style="opacity:0.5;fill:#FCDCC9;" points="143.532,337.696 143.532,286.495 196.621,286.495 			"/>
			<rect x="209.754" y="284.315" style="fill:#EDEDED;" width="9.486" height="16.051"/>
			<rect x="173.474" y="322.564" style="fill:#70441C;" width="21.254" height="2.634"/>
			<rect x="180.339" y="327.568" style="fill:#70441C;" width="14.389" height="2.634"/>
			
				<rect x="188.931" y="331.787" style="fill:none;stroke:#70441C;stroke-width:1.3091;stroke-linecap:round;stroke-linejoin:round;stroke-miterlimit:10;" width="5.092" height="4.077"/>
			
				<rect x="181.109" y="331.787" style="fill:none;stroke:#70441C;stroke-width:1.3091;stroke-linecap:round;stroke-linejoin:round;stroke-miterlimit:10;" width="5.088" height="4.077"/>
		</g>
	</g>
</g>
<g>
	<path style="fill:#B2B2B2;" d="M164.964,382.748c0,2.72-20.02,4.923-44.717,4.923c-24.695,0-44.714-2.204-44.714-4.923
		c0-2.719,20.018-4.925,44.714-4.925C144.944,377.823,164.964,380.029,164.964,382.748z"/>
	<path style="fill:#B2B2B2;" d="M117.185,388.046c0,1.571-10.876,2.843-24.293,2.843s-24.293-1.272-24.293-2.843
		s10.876-2.844,24.293-2.844S117.185,386.476,117.185,388.046z"/>
	<g>
		<g>
			<path style="fill:#F9BB8D;" d="M157.654,78.158c0,0,10.742,35.91,8.93,39.495c-3.379,6.679-16.216,18.381-16.216,18.381
				l-8.633-6.892l13.709-15.096l-2.769-33.673L157.654,78.158z"/>
			<path style="fill:#E84E0F;" d="M143.969,124.119c-8.835,7.746-19.994,19.578-21.498,21.25c-5.606,6.226,7.959,11.2,12.007,7.644
				c2.104-1.843,9.73-9.285,19.162-17.872L143.969,124.119z"/>
			<path style="fill:#F9BB8D;" d="M159.029,68.331c0.681,3.319-1.375,9.827-1.375,9.827l-4.979,2.216c0,0-3.396-5.19-3.942-7.842
				C148.365,70.735,158.349,65.013,159.029,68.331z"/>
		</g>
		<g>
			
				<rect x="125.201" y="88.19" transform="matrix(0.2762 -0.9611 0.9611 0.2762 18.7526 239.4302)" style="fill:#D7803D;" width="86.264" height="38.15"/>
			
				<rect x="162.581" y="71.911" transform="matrix(0.2761 -0.9611 0.9611 0.2761 52.1796 225.1058)" style="fill:#EBDED2;" width="25.88" height="12.008"/>
			
				<rect x="73.052" y="57.095" transform="matrix(0.2762 -0.9611 0.9611 0.2762 -4.5962 178.4557)" style="fill:#F6A654;" width="86.265" height="70.369"/>
			<polygon style="opacity:0.5;fill:#FCDCC9;" points="74.038,121.535 95.994,45.12 158.327,63.031 			"/>
			
				<rect x="164.344" y="71.987" transform="matrix(0.2761 -0.9611 0.9611 0.2761 53.2337 226.2451)" style="fill:#EDEDED;" width="24.92" height="11.596"/>
			
				<rect x="125.551" y="101.611" transform="matrix(0.2762 -0.9611 0.9611 0.2762 -17.7816 205.5844)" style="fill:#70441C;" width="4.092" height="25.974"/>
			
				<rect x="127.44" y="114.438" transform="matrix(0.2762 -0.9611 0.9611 0.2762 -24.71 213.6457)" style="fill:#70441C;" width="4.089" height="17.579"/>
			
				<rect x="128.831" y="128.815" transform="matrix(0.2763 -0.9611 0.9611 0.2763 -31.2616 222.3328)" style="fill:none;stroke:#70441C;stroke-width:1.803;stroke-linecap:round;stroke-linejoin:round;stroke-miterlimit:10;" width="6.329" height="6.218"/>
			
				<rect x="119.643" y="126.179" transform="matrix(0.2761 -0.9611 0.9611 0.2761 -35.3557 211.6278)" style="fill:none;stroke:#70441C;stroke-width:1.803;stroke-linecap:round;stroke-linejoin:round;stroke-miterlimit:10;" width="6.33" height="6.21"/>
		</g>
		<path style="fill:#901C0A;" d="M138.24,91.145c0,0,4.11-2.819,6.255-4.587c6.229-4.039,14.852-2.374,14.852-2.374
			s0.127,2.544-6.504,5.865C146.64,93.157,138.24,91.145,138.24,91.145z"/>
		<path style="fill:#050000;" d="M121.914,370.581c-0.397,4.838-1.174,9.969,3.829,11.232c2.91,0.736,18.193,1.392,23.497,0.514
			c3.797-0.627,8.435-1.26,8.633-2.983c0.199-1.723-1.634-5.096-3.86-4.998c-5.584,0.248-11.161,0.068-16.465-5.094
			C135.708,367.461,121.136,369.036,121.914,370.581z"/>
		<path style="fill:#7F1F19;" d="M137.446,235.069c0,0-34.03-38.496-40.075-14.048c-4.576,18.51,19.327,32.124,19.327,32.124
			l7.698,49.465l-6.318,68.069l19.47-1.427l6.414-68.458L137.446,235.069z"/>
		<path style="fill:#300F00;" d="M76.605,368.454c-1.493,4.624-4.209,11.099,0.374,13.471c2.668,1.379,16.734,6.147,22.109,6.069
			c2.663-0.038,9.152,0.485,9.735-1.145c0.585-1.635-0.429-5.336-2.615-5.751c-5.492-1.031-10.884-2.478-14.873-8.717
			C89.957,370.226,76.198,366.772,76.605,368.454z"/>
		<path style="fill:#B41F1C;" d="M125.615,259.198c0,0,14.824-14.22,12.365-33.886c-1.653-13.234-39.561-11.844-42.073-0.475
			c-2.512,11.366,3.842,34.661,3.842,34.661l0.152,50.901l-25.792,58.055l20.043,4.235l26.223-58.961L125.615,259.198z"/>
		<path style="fill:#F9BB8D;" d="M130.008,152.782c-5.119,0-19.168-12.198-19.168-12.198s2.758-8.569-2.251-16.01
			c-0.509-0.762,3.049-0.581,7.261,0.146c0.326,0.072,0.689,0.109,1.016,0.181c0.037,0,0.073,0,0.073,0
			c1.707,0.326,3.484,0.726,5.081,1.198c0.038,0,0.073,0,0.073,0c3.558,0.98,6.28,2.252,5.736,3.45
			c-0.146,0.361-0.326,0.726-0.472,1.052c-0.036,0.035-0.073,0.108-0.073,0.146c-1.777,3.884-3.376,7.079-1.888,8.856
			c0.363,0.401,0.873,0.727,1.562,0.982C128.701,140.91,135.127,152.782,130.008,152.782z"/>
		<path style="fill:#E09D74;" d="M127.756,129.548c-0.146,0.361-0.291,0.689-0.398,1.052c-0.036,0.035-0.073,0.108-0.073,0.146
			c-1.777,3.884-3.376,7.079-1.888,8.856c-2.867-1.197-5.372-3.302-7.188-5.807c-1.923-2.724-2.251-5.882-2.359-9.076
			c0.326,0.072,0.689,0.109,1.016,0.181c0.037,0,0.073,0,0.073,0c1.742,0.326,3.484,0.762,5.081,1.198c0.038,0,0.073,0,0.073,0
			C125.615,127.115,128.303,128.349,127.756,129.548z"/>
		<path style="fill:#EA5B0C;" d="M95.907,224.837l42.073,0.475c0,0-1.786-24.051-0.68-41.718c0-41.915-10.343-43.01-10.343-43.01
			s-0.662,2.936-6.108,2.936c-7.26,0-10.01-2.936-10.01-2.936s-6.83,2.301-11.765,6.162
			C91.354,152.783,95.907,224.837,95.907,224.837z"/>
		<path style="fill:#B41F1C;" d="M137.301,183.594c0-5.81-0.204-10.808-0.547-15.156h-19.609v47.194H95.418
			c0.265,5.604,0,12.694,0,12.694l42.562-1.348C137.98,226.979,136.194,201.261,137.301,183.594z"/>
		<g>
			<path style="fill:#F9BB8D;" d="M142.559,111.889c-0.811,19.026-8.343,22.629-17.034,22.629c-7.741,0-20.773-3.726-20.773-24.223
				c0-21.032-4.304-36.631,15.861-36.631C146.539,73.663,143.449,90.875,142.559,111.889z"/>
			<g>
				<path style="fill:#FFFFFF;" d="M133.205,119.298c0,0-1.301,3.586-5.757,3.896c-3.258,0.229-5.158-4.003-5.158-4.003
					L133.205,119.298z"/>
				<path style="fill:#E09D74;" d="M133.205,119.298c-0.663,1.603-1.818,5.37-5.943,5.13c-3.242-0.186-4.598-3.587-4.972-5.237
					c0,0,1.254,3.95,5.459,4.014C130.954,123.254,133.205,119.298,133.205,119.298z"/>
				<path style="fill:#D7CAC8;" d="M129.48,112.403c0,0.393-1.046,1.077-2.931,1.077c-1.884,0-2.09-3.185-2.09-3.185
					s0.206,1.757,2.09,1.757C128.434,112.051,129.48,112.007,129.48,112.403z"/>
				<g>
					<path style="fill:#21141A;" d="M139.598,104.151c0,1.031-0.819,1.869-1.826,1.869c-1.012,0-1.829-0.837-1.829-1.869
						c0-1.03,0.817-1.866,1.829-1.866C138.778,102.285,139.598,103.121,139.598,104.151z"/>
					<path style="fill:#FFFFFF;" d="M138.811,103.456c0,0.385-0.306,0.695-0.681,0.695c-0.378,0-0.684-0.31-0.684-0.695
						c0-0.385,0.306-0.696,0.684-0.696C138.505,102.76,138.811,103.071,138.811,103.456z"/>
				</g>
				<path style="fill:#F5A58E;" d="M141.96,109.258c0,0.826-1.666,1.499-3.72,1.499c-2.057,0-3.724-0.673-3.724-1.499
					c0-0.83,1.667-1.503,3.724-1.503C140.294,107.754,141.96,108.428,141.96,109.258z"/>
				<g>
					<path style="fill:#21141A;" d="M115.036,104.151c0,1.031,0.819,1.869,1.827,1.869c1.009,0,1.826-0.837,1.826-1.869
						c0-1.03-0.817-1.866-1.826-1.866C115.855,102.285,115.036,103.121,115.036,104.151z"/>
					<path style="fill:#FFFFFF;" d="M115.822,103.456c0,0.385,0.308,0.695,0.683,0.695c0.374,0,0.68-0.31,0.68-0.695
						c0-0.385-0.306-0.696-0.68-0.696C116.13,102.76,115.822,103.071,115.822,103.456z"/>
				</g>
				<path style="fill:#21141A;" d="M113.614,96.385c0.593-0.44,1.352-0.65,2.096-0.945c0.777-0.133,1.584-0.435,2.389-0.268
					c0.391,0.1,0.786,0.096,1.112,0.288c0.31,0.205,0.604,0.396,0.88,0.576c0.547,0.324-0.492,1.221-0.733,1.185
					c-0.448-0.135-0.931-0.234-1.51-0.255c-0.536-0.191-1.198-0.116-1.854-0.164c-0.637,0.14-1.333,0.188-1.9,0.477
					C113.469,97.486,112.973,96.712,113.614,96.385z"/>
				<path style="fill:#21141A;" d="M140.613,96.385c-0.593-0.44-1.351-0.65-2.096-0.945c-0.778-0.133-1.585-0.435-2.39-0.268
					c-0.39,0.1-0.785,0.096-1.111,0.288c-0.311,0.205-0.604,0.396-0.88,0.576c-0.547,0.324,0.492,1.221,0.733,1.185
					c0.448-0.135,0.93-0.234,1.51-0.255c0.536-0.191,1.199-0.116,1.854-0.164c0.636,0.14,1.333,0.188,1.9,0.477
					C140.759,97.486,141.255,96.712,140.613,96.385z"/>
				<path style="fill:#F5A58E;" d="M112.671,109.258c0,0.826,1.667,1.499,3.723,1.499c2.055,0,3.721-0.673,3.721-1.499
					c0-0.83-1.666-1.503-3.721-1.503C114.338,107.754,112.671,108.428,112.671,109.258z"/>
			</g>
			<path style="fill:#21141A;" d="M143.107,99.777c0,0,3.231-12.982,0.044-21.835c-3.188-8.851-11.354-11.167-18.692-11.456
				c-7.366-0.289-18.145,0.108-20.095,5.224c-11.125-2.416-6.43,34.99-6.43,34.99s5.175-4.68,10.924-6.319
				c-5.178-13.526,9.345-14.756,23.45-13.926C142.559,87.057,143.107,99.777,143.107,99.777z"/>
			<path style="fill:#F9BB8D;" d="M97.292,109.263c0.027,3.289,2.88,8.922,7.58,7.592c3.405-0.964,5.193-2.808,5.193-6.417
				c0-3.608-3.518,0.362-4.847-2.983C103.237,102.473,97.249,104.386,97.292,109.263z"/>
			<path style="fill:#21141A;" d="M104.364,107.754c-0.918-1.979-3.101-5.47-6.43-1.055c-0.475-4.563,2.023-8.374,2.516-11.779
				c1.876-13.022,2.113-0.895,8.408,5.46c-5.621,3.132-0.843,9.582-0.843,9.582l-1.939,1.926
				C106.076,111.889,104.585,109.407,104.364,107.754z"/>
		</g>
		<path style="fill:#E73926;" d="M137.188,89.832c-13.95,0.44-41.049,0.206-41.049-0.702c0-17.978,9.171-24.235,24.71-24.235
			c14.567,0,23.291,2.394,24.326,20.418C145.245,86.515,141.801,87.435,137.188,89.832z"/>
		<path style="fill:#E5251D;" d="M142.597,88.837c-5.954,4.619-18.138,4.726-22.35,3.967c-5.919-1.067-6.933-2.794-6.933-2.794
			s16.522-4.271,26.973-5.764c13.16-1.879,19.06-0.063,19.06-0.063S149.092,83.799,142.597,88.837z"/>
		<path style="fill:#B41F1C;" d="M121.839,170.491c0.227,1.815-2.992,4.994-2.728,1.589c-6.656-32.479-14.747-28.667-14.747-28.667
			l4.177-1.946C108.541,141.467,119.375,145.986,121.839,170.491z"/>
		<path style="fill:#B41F1C;" d="M136.559,168.629c0.228,1.815-2.991,4.993-2.728,1.589c-3.012-26.231-6.873-29.635-6.873-29.635
			S134.095,144.124,136.559,168.629z"/>
		<g>
			<path style="fill:#F9BB8D;" d="M155.305,62.295c-0.385,1.629-2.478,0.892-2.293-0.444c0.227-1.657,0.532-4.427,0.992-6.616
				c0.367-1.765,3.229-1.045,2.868,0.685C156.511,57.649,155.757,60.393,155.305,62.295z"/>
			<path style="fill:#F9BB8D;" d="M158.045,62.254c-0.355,1.473-2.453,0.764-2.291-0.448c0.194-1.505,0.444-4.016,0.859-5.996
				c0.332-1.597,3.197-0.893,2.868,0.676C159.157,58.052,158.459,60.534,158.045,62.254z"/>
			<path style="fill:#F9BB8D;" d="M160.424,62.19c-0.311,1.307-2.112,0.693-1.965-0.382c0.175-1.332,0.405-3.551,0.771-5.304
				c0.295-1.418,2.75-0.81,2.463,0.575C161.399,58.47,160.789,60.667,160.424,62.19z"/>
			<path style="fill:#F9BB8D;" d="M152.784,61.157c-0.353,1.477-2.452,0.766-2.294-0.444c0.195-1.508,0.447-4.016,0.86-5.998
				c0.335-1.601,3.197-0.893,2.873,0.672C153.895,56.954,153.199,59.436,152.784,61.157z"/>
		</g>
		<path style="fill:#F9BB8D;" d="M169.179,152.478c0,0-22.085,35.698-29.346,38.573c-4.599,1.819-33.429-24.354-33.429-24.354
			l5.473-9.17l27.049,22.784l27.864-35.001l5.768-3.842l3.141,10.355L169.179,152.478z"/>
		<path style="fill:#E84E0F;" d="M126.216,169.605c0,0-13.108-17.773-15.672-20.431c-5.815-6.031-14.362-0.764-12.156,6.981
			c0.766,2.691,17.889,22.87,17.889,22.87L126.216,169.605z"/>
		<g>
			<path style="fill:#F9BB8D;" d="M179.063,147.143c1.642,0.337,0.964,2.452-0.376,2.306c-1.666-0.177-4.442-0.402-6.64-0.796
				c-1.78-0.315-1.147-3.195,0.595-2.886C174.384,146.075,177.147,146.749,179.063,147.143z"/>
			<path style="fill:#F9BB8D;" d="M178.939,144.406c1.485,0.308,0.84,2.432-0.376,2.304c-1.514-0.149-4.027-0.326-6.023-0.681
				c-1.606-0.287-0.987-3.169,0.593-2.889C174.703,143.418,177.21,144.044,178.939,144.406z"/>
			<path style="fill:#F9BB8D;" d="M178.809,142.032c1.315,0.269,0.755,2.086-0.326,1.975c-1.337-0.137-3.564-0.302-5.325-0.615
				c-1.424-0.252-0.89-2.724,0.505-2.48C175.058,141.163,177.271,141.711,178.809,142.032z"/>
			<path style="fill:#F9BB8D;" d="M178,149.697c1.485,0.306,0.837,2.428-0.374,2.306c-1.516-0.152-4.029-0.33-6.021-0.684
				c-1.611-0.287-0.987-3.17,0.589-2.89C173.768,148.71,176.27,149.334,178,149.697z"/>
		</g>
	</g>
</g>
</svg>
