<?xml version="1.0" encoding="utf-8"?>
<!-- Generator: Adobe Illustrator 27.5.0, SVG Export Plug-In . SVG Version: 6.00 Build 0)  -->
<svg version="1.1" xmlns="http://www.w3.org/2000/svg" xmlns:xlink="http://www.w3.org/1999/xlink" x="0px" y="0px"
	 viewBox="0 0 500 500" style="enable-background:new 0 0 500 500;" xml:space="preserve">
<g id="Floor">
	<g id="XMLID_14458_">
		<path style="fill:#F0F0F0;" d="M97.485,417.257c86.389,41.175,226.455,41.176,312.843,0.001c86.39-41.176,86.39-107.933,0-149.108
			c-86.389-41.175-226.455-41.175-312.844-0.001C11.094,309.324,11.094,376.082,97.485,417.257z"/>
	</g>
</g>
<g id="Shadow">
	<g id="XMLID_14457_">
		<path style="fill:#E0E0E0;" d="M250.858,388.538c10.02,4.776,26.264,4.776,36.283,0c10.02-4.775,10.02-12.517,0-17.293
			c-10.019-4.775-26.264-4.775-36.283,0C240.839,376.021,240.839,383.763,250.858,388.538z"/>
	</g>
</g>
<g id="Boxes">
	<g>
		<g id="boxes">
			<g id="XMLID_252_">
				<g id="XMLID_264_">
					<polygon style="fill:#F0F0F0;" points="147.393,272.511 101.075,245.769 54.756,272.511 101.075,299.253 					"/>
				</g>
				<g id="XMLID_263_">
					<polygon style="fill:#EBEBEB;" points="101.075,334.909 147.393,308.167 147.393,272.511 101.075,299.253 					"/>
				</g>
				<g id="XMLID_56_">
					<g id="XMLID_14718_">
						<path style="fill:#E0E0E0;" d="M107.983,326.638c-0.093,0-0.181-0.022-0.259-0.067c-0.181-0.103-0.284-0.311-0.284-0.571
							v-0.651c0-0.131,0.106-0.238,0.237-0.238c0.131,0,0.238,0.107,0.238,0.238v0.651c0,0.097,0.027,0.148,0.045,0.158
							c0.017,0.013,0.073,0.007,0.155-0.041c0.209-0.122,0.442-0.593,0.442-1.074v-4.22c0-0.131,0.106-0.238,0.237-0.238
							s0.238,0.107,0.238,0.238v4.22c0,0.62-0.291,1.257-0.676,1.484C108.231,326.601,108.103,326.638,107.983,326.638z"/>
					</g>
					<g id="XMLID_14717_">
						<path style="fill:#E0E0E0;" d="M105.482,322.948v-0.411c0-1.935,1.363-4.297,3.038-5.263c0.857-0.494,1.676-0.567,2.302-0.204
							c0.628,0.363,0.974,1.107,0.974,2.096v0.137L105.482,322.948z M109.942,317.317c-0.358,0-0.761,0.124-1.185,0.368
							c-1.424,0.821-2.602,2.736-2.778,4.427l5.339-3.083c-0.028-0.743-0.286-1.291-0.734-1.55
							C110.395,317.372,110.178,317.317,109.942,317.317z"/>
					</g>
				</g>
				<g id="XMLID_50_">
					<g id="XMLID_49_">
						<g id="XMLID_14720_">
							<path style="fill:#E0E0E0;" d="M116.514,321.775c-0.131,0-0.238-0.107-0.238-0.238v-6.819c0-0.131,0.106-0.238,0.238-0.238
								c0.131,0,0.238,0.107,0.238,0.238v6.819C116.752,321.668,116.645,321.775,116.514,321.775z"/>
						</g>
						<g id="XMLID_51_">
							<path style="fill:#E0E0E0;" d="M115.819,316.563c-0.032,0-0.064-0.007-0.094-0.02c-0.121-0.052-0.176-0.192-0.124-0.313
								l0.846-1.953l0.943,1.09c0.086,0.099,0.075,0.25-0.024,0.336c-0.099,0.083-0.249,0.075-0.335-0.024l-0.448-0.518
								l-0.545,1.259C115.998,316.509,115.911,316.563,115.819,316.563z"/>
						</g>
					</g>
					<g id="XMLID_52_">
						<g id="XMLID_54_">
							<path style="fill:#E0E0E0;" d="M118.711,320.522c-0.131,0-0.237-0.107-0.237-0.237v-6.818c0-0.131,0.106-0.238,0.237-0.238
								c0.131,0,0.238,0.107,0.238,0.238v6.818C118.949,320.415,118.842,320.522,118.711,320.522z"/>
						</g>
						<g id="XMLID_53_">
							<path style="fill:#E0E0E0;" d="M118.016,315.31c-0.031,0-0.063-0.006-0.094-0.019c-0.121-0.052-0.176-0.192-0.124-0.313
								l0.845-1.952l0.943,1.088c0.086,0.099,0.075,0.25-0.024,0.335c-0.1,0.086-0.249,0.075-0.335-0.023l-0.448-0.518l-0.545,1.259
								C118.195,315.256,118.108,315.31,118.016,315.31z"/>
						</g>
					</g>
				</g>
				<g id="XMLID_262_">
					<polygon style="fill:#E0E0E0;" points="101.075,334.909 54.756,308.167 54.756,272.511 101.075,299.253 					"/>
				</g>
				<g id="XMLID_261_">
					<polygon style="fill:#EBEBEB;" points="76.17,320.53 79.661,322.546 79.661,286.89 76.17,284.874 					"/>
				</g>
				<g id="XMLID_260_">
					<path style="fill:#E0E0E0;" d="M127.555,290.65l-6.642,3.835c-1.364,0.787-2.469,2.423-2.469,3.654
						c0,1.231,1.105,1.59,2.469,0.803l6.642-3.835c1.363-0.787,2.469-2.423,2.469-3.654
						C130.024,290.222,128.919,289.862,127.555,290.65z"/>
				</g>
				<g id="XMLID_259_">
					<polygon style="fill:#FAFAFA;" points="79.661,286.891 125.98,260.148 122.489,258.132 76.17,284.874 					"/>
				</g>
				<g id="XMLID_258_">
					<polygon style="fill:#FAFAFA;" points="122.489,286.891 76.17,260.148 79.661,258.132 125.98,284.874 					"/>
				</g>
				<g id="XMLID_55_" style="opacity:0.8;">
					<polygon style="fill:#E0E0E0;" points="56.784,271.34 101.185,296.952 145.449,271.397 101.075,245.769 					"/>
				</g>
				<g id="XMLID_253_">
					<polygon style="fill:#F0F0F0;" points="122.489,290.469 122.489,286.891 125.98,284.874 125.98,288.453 					"/>
				</g>
			</g>
			<g id="XMLID_225_">
				<g id="XMLID_14608_">
					<polygon style="fill:#F0F0F0;" points="145.31,232.398 98.991,205.656 52.673,232.398 98.992,259.14 					"/>
				</g>
				<g id="XMLID_14725_" style="opacity:0.8;">
					<polygon style="fill:#E0E0E0;" points="56.609,232.81 100.603,258.21 145.31,232.398 101.316,206.998 					"/>
				</g>
				<g id="XMLID_4724_">
					<polygon style="fill:#EBEBEB;" points="98.992,294.796 145.31,268.054 145.31,232.398 98.992,259.14 					"/>
				</g>
				<g id="XMLID_547_">
					<g id="XMLID_4399_">
						<path style="fill:#E0E0E0;" d="M105.9,286.525c-0.093,0-0.181-0.022-0.259-0.067c-0.181-0.103-0.284-0.311-0.284-0.571v-0.651
							c0-0.131,0.106-0.237,0.238-0.237c0.131,0,0.238,0.107,0.238,0.237v0.651c0,0.098,0.027,0.148,0.045,0.158
							c0.018,0.013,0.073,0.007,0.156-0.041c0.209-0.122,0.442-0.593,0.442-1.074v-4.22c0-0.131,0.106-0.238,0.238-0.238
							c0.131,0,0.238,0.107,0.238,0.238v4.22c0,0.62-0.29,1.257-0.676,1.484C106.148,286.488,106.02,286.525,105.9,286.525z"/>
					</g>
					<g id="XMLID_1846_">
						<path style="fill:#E0E0E0;" d="M103.398,282.835v-0.411c0-1.935,1.363-4.297,3.039-5.263c0.856-0.494,1.675-0.567,2.302-0.204
							c0.628,0.363,0.974,1.107,0.974,2.096v0.137L103.398,282.835z M107.859,277.204c-0.358,0-0.761,0.124-1.184,0.368
							c-1.424,0.821-2.603,2.736-2.778,4.427l5.339-3.083c-0.028-0.743-0.286-1.291-0.734-1.55
							C108.312,277.259,108.095,277.204,107.859,277.204z"/>
					</g>
				</g>
				<g id="XMLID_47_">
					<g id="XMLID_541_">
						<g id="XMLID_546_">
							<path style="fill:#E0E0E0;" d="M114.431,281.662c-0.131,0-0.238-0.107-0.238-0.238v-6.818c0-0.131,0.106-0.238,0.238-0.238
								s0.238,0.107,0.238,0.238v6.818C114.668,281.555,114.562,281.662,114.431,281.662z"/>
						</g>
						<g id="XMLID_542_">
							<path style="fill:#E0E0E0;" d="M113.736,276.45c-0.032,0-0.064-0.006-0.095-0.019c-0.12-0.052-0.176-0.192-0.124-0.313
								l0.846-1.952l0.942,1.087c0.086,0.099,0.075,0.25-0.024,0.336c-0.1,0.085-0.25,0.074-0.335-0.024l-0.448-0.518l-0.545,1.259
								C113.915,276.396,113.828,276.45,113.736,276.45z"/>
						</g>
					</g>
					<g id="XMLID_48_">
						<g id="XMLID_534_">
							<path style="fill:#E0E0E0;" d="M116.628,280.409c-0.131,0-0.237-0.107-0.237-0.238v-6.818c0-0.131,0.106-0.238,0.237-0.238
								c0.131,0,0.238,0.107,0.238,0.238v6.818C116.865,280.302,116.759,280.409,116.628,280.409z"/>
						</g>
						<g id="XMLID_533_">
							<path style="fill:#E0E0E0;" d="M115.933,275.197c-0.032,0-0.063-0.007-0.095-0.02c-0.12-0.052-0.175-0.192-0.123-0.313
								l0.846-1.952l0.942,1.088c0.086,0.099,0.075,0.25-0.024,0.336c-0.099,0.083-0.249,0.075-0.335-0.024l-0.448-0.518
								l-0.545,1.259C116.112,275.143,116.025,275.197,115.933,275.197z"/>
						</g>
					</g>
				</g>
				<g id="XMLID_44_">
					<polygon style="fill:#E0E0E0;" points="98.992,294.796 52.673,268.054 52.673,232.398 98.992,259.14 					"/>
				</g>
				<g id="XMLID_38_">
					<polygon style="fill:#EBEBEB;" points="74.087,280.417 77.578,282.433 77.578,246.777 74.087,244.761 					"/>
				</g>
				<g id="XMLID_235_">
					<path style="fill:#E0E0E0;" d="M125.472,250.537l-6.642,3.835c-1.364,0.787-2.469,2.423-2.469,3.654
						c0,1.231,1.105,1.59,2.469,0.803l6.642-3.835c1.363-0.787,2.469-2.423,2.469-3.654
						C127.941,250.109,126.836,249.75,125.472,250.537z"/>
				</g>
				<g id="XMLID_234_">
					<polygon style="fill:#FAFAFA;" points="77.578,246.777 123.897,220.036 120.406,218.019 74.087,244.761 					"/>
				</g>
				<g id="XMLID_233_">
					<polygon style="fill:#FAFAFA;" points="120.406,246.777 74.087,220.036 77.578,218.019 123.897,244.761 					"/>
				</g>
				<g id="XMLID_231_">
					<polygon style="fill:#F0F0F0;" points="120.406,250.356 120.406,246.777 123.897,244.761 123.897,248.34 					"/>
				</g>
				<g id="XMLID_14722_" style="opacity:0.8;">
					<polygon style="fill:#E0E0E0;" points="100.603,258.21 104.765,260.623 145.31,237.214 145.31,232.398 					"/>
				</g>
			</g>
			<g id="XMLID_14609_">
				<g id="XMLID_14721_">
					<polygon style="fill:#F0F0F0;" points="149.954,196.742 103.635,170 57.317,196.742 103.636,223.484 					"/>
				</g>
				<g id="XMLID_14719_">
					<polygon style="fill:#EBEBEB;" points="103.636,259.14 149.954,232.398 149.954,196.742 103.636,223.484 					"/>
				</g>
				<g id="XMLID_14623_">
					<g id="XMLID_14625_">
						<path style="fill:#E0E0E0;" d="M110.545,250.869c-0.093,0-0.181-0.022-0.259-0.067c-0.181-0.103-0.284-0.311-0.284-0.571
							v-0.652c0-0.131,0.106-0.238,0.238-0.238c0.131,0,0.237,0.107,0.237,0.238v0.652c0,0.097,0.027,0.147,0.045,0.158
							c0.018,0.013,0.073,0.007,0.155-0.041c0.209-0.122,0.442-0.593,0.442-1.074v-4.22c0-0.131,0.106-0.238,0.238-0.238
							c0.131,0,0.238,0.106,0.238,0.238v4.22c0,0.62-0.29,1.257-0.676,1.484C110.792,250.832,110.664,250.869,110.545,250.869z"/>
					</g>
					<g id="XMLID_14624_">
						<path style="fill:#E0E0E0;" d="M108.042,247.179v-0.411c0-1.935,1.363-4.296,3.039-5.263c0.857-0.494,1.674-0.566,2.302-0.205
							c0.628,0.363,0.974,1.107,0.974,2.096v0.137L108.042,247.179z M112.503,241.548c-0.358,0-0.761,0.124-1.184,0.368
							c-1.424,0.822-2.603,2.736-2.778,4.427l5.34-3.083c-0.028-0.743-0.286-1.29-0.734-1.549
							C112.956,241.602,112.74,241.548,112.503,241.548z"/>
					</g>
				</g>
				<g id="XMLID_14616_">
					<g id="XMLID_14620_">
						<g id="XMLID_14622_">
							<path style="fill:#E0E0E0;" d="M119.075,246.006c-0.131,0-0.238-0.106-0.238-0.238v-6.818c0-0.131,0.106-0.238,0.238-0.238
								c0.131,0,0.238,0.106,0.238,0.238v6.818C119.312,245.9,119.206,246.006,119.075,246.006z"/>
						</g>
						<g id="XMLID_14621_">
							<path style="fill:#E0E0E0;" d="M118.38,240.793c-0.032,0-0.064-0.006-0.095-0.02c-0.12-0.052-0.175-0.192-0.123-0.313
								l0.846-1.952l0.942,1.089c0.086,0.099,0.075,0.249-0.024,0.335c-0.099,0.086-0.249,0.075-0.335-0.024l-0.448-0.517
								l-0.545,1.259C118.559,240.74,118.472,240.793,118.38,240.793z"/>
						</g>
					</g>
					<g id="XMLID_14617_">
						<g id="XMLID_14619_">
							<path style="fill:#E0E0E0;" d="M121.272,244.754c-0.131,0-0.238-0.106-0.238-0.238v-6.819c0-0.131,0.106-0.237,0.238-0.237
								c0.131,0,0.238,0.106,0.238,0.237v6.819C121.509,244.647,121.403,244.754,121.272,244.754z"/>
						</g>
						<g id="XMLID_14618_">
							<path style="fill:#E0E0E0;" d="M120.577,239.541c-0.031,0-0.064-0.006-0.094-0.02c-0.121-0.052-0.176-0.192-0.124-0.312
								l0.846-1.953l0.943,1.089c0.086,0.099,0.075,0.249-0.024,0.335c-0.099,0.085-0.249,0.076-0.335-0.024l-0.448-0.517
								l-0.545,1.259C120.756,239.488,120.669,239.541,120.577,239.541z"/>
						</g>
					</g>
				</g>
				<g id="XMLID_14615_">
					<polygon style="fill:#E0E0E0;" points="103.636,259.14 57.317,232.398 57.317,196.742 103.636,223.484 					"/>
				</g>
				<g id="XMLID_14614_">
					<polygon style="fill:#EBEBEB;" points="78.731,244.761 82.222,246.777 82.222,211.121 78.731,209.105 					"/>
				</g>
				<g id="XMLID_14613_">
					<path style="fill:#E0E0E0;" d="M130.116,214.881l-6.642,3.835c-1.363,0.787-2.469,2.423-2.469,3.654
						c0,1.231,1.105,1.59,2.469,0.803l6.642-3.835c1.363-0.787,2.469-2.423,2.469-3.654
						C132.585,214.453,131.48,214.094,130.116,214.881z"/>
				</g>
				<g id="XMLID_14612_">
					<polygon style="fill:#FAFAFA;" points="82.222,211.121 128.541,184.38 125.05,182.363 78.731,209.105 					"/>
				</g>
				<g id="XMLID_14611_">
					<polygon style="fill:#FAFAFA;" points="125.05,211.121 78.731,184.38 82.222,182.363 128.541,209.105 					"/>
				</g>
				<g id="XMLID_14610_">
					<polygon style="fill:#F0F0F0;" points="125.05,214.699 125.05,211.121 128.541,209.105 128.541,212.684 					"/>
				</g>
			</g>
		</g>
	</g>
</g>
<g id="Window">
	<g>
		<g id="plants">
			<g id="XMLID_7755_">
				<g>
					<path style="fill:#37474F;" d="M168.718,328.098v-15.634c0,0-0.8-8.823-6.98-15.514c-6.18-6.691-11.717-4.415-13.52-1.24
						c-1.803,3.176,2.299,9.204,4.918,12.596c3.153,4.083,15.582,23.045,15.582,31.536V328.098z"/>
					<path style="display:none;opacity:0.7;fill:#FAFAFA;" d="M168.718,328.098v-15.634c0,0-0.8-8.823-6.98-15.514
						c-6.18-6.691-11.717-4.415-13.52-1.24c-1.803,3.176,2.299,9.204,4.918,12.596c3.153,4.083,15.582,23.045,15.582,31.536V328.098
						z"/>
				</g>
				<g id="XMLID_312_">
					<path style="fill:#FAFAFA;" d="M168.718,325.628c-0.184,0-0.347-0.133-0.378-0.321c-2.819-17.05-15.795-28.751-15.926-28.867
						c-0.159-0.141-0.173-0.384-0.032-0.542c0.14-0.159,0.383-0.172,0.541-0.032c0.133,0.118,13.309,11.991,16.173,29.315
						c0.035,0.209-0.107,0.407-0.316,0.441C168.76,325.626,168.738,325.628,168.718,325.628z"/>
				</g>
			</g>
			<g id="XMLID_46_">
				<g>
					<path style="fill:#455A64;" d="M168.718,328.098c0,0,0.62-1.883-2.146-2.359c-2.765-0.476-3.828-2.779-4.087-6.637
						c-0.26-3.858-1.424-6.628-4.893-7.198c-3.469-0.57-6.262,1.177-8.516-0.56c-2.254-1.736-8.079-5.935-12.931-4.023
						c-4.853,1.911-3.262,6.054-0.738,8.742c2.523,2.688,3.256,3.593,1.324,7.962c-1.932,4.369-0.525,8.451,3.939,9.472
						c4.464,1.021,6.959,0.499,7.029,5.397c0.07,4.899,0.746,7.079,3.191,8.997c2.445,1.918,10.142,1.055,13.341,1.799
						c3.199,0.745,4.489,3.598,4.489,3.598V328.098z"/>
					<path style="display:none;opacity:0.8;fill:#FAFAFA;" d="M168.718,328.098c0,0,0.62-1.883-2.146-2.359
						c-2.765-0.476-3.828-2.779-4.087-6.637c-0.26-3.858-1.424-6.628-4.893-7.198c-3.469-0.57-6.262,1.177-8.516-0.56
						c-2.254-1.736-8.079-5.935-12.931-4.023c-4.853,1.911-3.262,6.054-0.738,8.742c2.523,2.688,3.256,3.593,1.324,7.962
						c-1.932,4.369-0.525,8.451,3.939,9.472c4.464,1.021,6.959,0.499,7.029,5.397c0.07,4.899,0.746,7.079,3.191,8.997
						c2.445,1.918,10.142,1.055,13.341,1.799c3.199,0.745,4.489,3.598,4.489,3.598V328.098z"/>
				</g>
				<g id="XMLID_245_">
					<path style="fill:#FAFAFA;" d="M168.719,348.275c-0.16,0-0.309-0.101-0.363-0.261c-8.126-24.128-26.516-33.873-26.701-33.968
						c-0.188-0.097-0.262-0.329-0.165-0.517c0.096-0.188,0.328-0.263,0.517-0.165c0.188,0.097,18.847,9.97,27.076,34.406
						c0.068,0.201-0.04,0.418-0.241,0.486C168.801,348.268,168.759,348.275,168.719,348.275z"/>
				</g>
				<g id="XMLID_251_">
					<path style="fill:#FAFAFA;" d="M157.062,327.243c-0.029,0-0.057-0.003-0.086-0.01c-5.305-1.212-13.797-0.557-13.882-0.551
						c-0.214,0.017-0.396-0.14-0.413-0.351c-0.017-0.211,0.141-0.396,0.352-0.413c0.353-0.029,8.694-0.671,14.113,0.568
						c0.207,0.047,0.336,0.253,0.288,0.459C157.395,327.122,157.237,327.243,157.062,327.243z"/>
				</g>
				<g id="XMLID_265_">
					<path style="fill:#FAFAFA;" d="M161.387,338.839c-2.425,0-4.997-0.158-5.159-0.168c-0.211-0.014-0.372-0.196-0.359-0.407
						c0.013-0.211,0.194-0.382,0.407-0.359c0.059,0.003,5.987,0.368,8.299,0.004c0.211-0.031,0.406,0.11,0.439,0.319
						c0.033,0.209-0.11,0.406-0.319,0.439C163.874,338.796,162.651,338.839,161.387,338.839z"/>
				</g>
				<g id="XMLID_266_">
					<path style="fill:#FAFAFA;" d="M154.571,324.408c-0.007,0-0.014,0-0.022-0.001c-0.211-0.011-0.374-0.193-0.361-0.404
						c0.236-4.256,1.647-7.926,1.707-8.08c0.077-0.197,0.3-0.297,0.496-0.218c0.197,0.076,0.295,0.299,0.218,0.497
						c-0.014,0.037-1.427,3.714-1.657,7.843C154.942,324.25,154.773,324.408,154.571,324.408z"/>
				</g>
			</g>
		</g>
		<g id="window">
			<g id="XMLID_59_">
				<path style="fill:#27DEBF;" d="M168.602,173.362V354.98c0,1.657,1.163,2.328,2.598,1.5l218.217-125.987
					c1.435-0.828,2.598-2.843,2.598-4.5V44.375c0-1.657-1.163-2.328-2.598-1.5L171.2,168.862
					C169.765,169.691,168.602,171.706,168.602,173.362z"/>
			</g>
			<g id="XMLID_41_">
				<g id="XMLID_63_">
					<path style="fill:#263238;" d="M389.416,42.875L171.2,168.862c-1.435,0.828-2.598,2.843-2.598,4.5v11.354L392.014,55.451
						V44.375C392.014,42.719,390.851,42.047,389.416,42.875z"/>
				</g>
				<g id="XMLID_60_">
					<path style="fill:#FFFFFF;" d="M361.548,63.045c-1.413,0.816-2.559,2.801-2.559,4.432c0,1.632,1.146,2.294,2.559,1.478
						c1.413-0.816,2.559-2.8,2.559-4.433C364.107,62.891,362.961,62.229,361.548,63.045z"/>
				</g>
				<g id="XMLID_62_">
					<path style="fill:#FFFFFF;" d="M371.703,57.182c-1.413,0.816-2.559,2.8-2.559,4.432s1.146,2.294,2.559,1.477
						c1.413-0.816,2.559-2.8,2.559-4.432S373.117,56.367,371.703,57.182z"/>
				</g>
				<g id="XMLID_64_">
					<path style="fill:#FFFFFF;" d="M381.859,51.319c-1.413,0.816-2.559,2.8-2.559,4.432s1.146,2.294,2.559,1.477
						c1.413-0.816,2.559-2.8,2.559-4.432S383.272,50.504,381.859,51.319z"/>
				</g>
			</g>
		</g>
		<g id="XMLID_61_">
			<path style="fill:#FAFAFA;" d="M238.688,168.58v53.976l-46.744,26.988l0-53.976L238.688,168.58 M239.688,166.848l-48.745,28.143
				l0,56.285l48.744-28.143V166.848L239.688,166.848z"/>
		</g>
		<g id="images">
			<g id="XMLID_36_">
				<g id="XMLID_66_">
					<path style="fill:#FAFAFA;" d="M255.435,214.619v-57.44l49.745-28.72v57.44L255.435,214.619z M256.435,157.755v55.131
						l47.745-27.565V130.19L256.435,157.755z"/>
				</g>
				<g id="XMLID_157_">
					<g id="XMLID_159_">
						<g id="XMLID_161_">
							<g id="XMLID_162_">
								<g>
									<g id="XMLID_171_">
										<path style="fill:#27DEBF;" d="M286.601,156.814l2.616-5.668c-2.495-0.499-5.401,0.119-8.355,1.702v5.124
											C282.889,156.917,284.874,156.508,286.601,156.814z"/>
										<path style="fill:#27DEBF;" d="M291.045,160.637l4.233-4.032c-1.031-2.667-2.843-4.451-5.17-5.211l-2.608,5.651
											C289.08,157.602,290.311,158.834,291.045,160.637z"/>
										<path style="fill:#27DEBF;" d="M274.013,186.266l-2.611,5.657c2.401,0.49,5.267-0.029,8.352-1.688v-5.136
											C277.642,186.201,275.677,186.568,274.013,186.266z"/>
										<path style="fill:#27DEBF;" d="M287.499,177.726l2.608,2.639c2.327-3.447,4.139-7.323,5.17-11.181l-4.233,0.856
											C290.311,172.69,289.08,175.344,287.499,177.726z"/>
										<path style="fill:#27DEBF;" d="M280.862,184.459v5.136c3.085-1.904,5.952-4.694,8.352-7.956l-2.611-2.642
											C284.939,181.221,282.974,183.123,280.862,184.459z"/>
										<path style="fill:#27DEBF;" d="M295.617,157.628l-4.229,4.028c0.263,0.961,0.415,2.037,0.415,3.244
											c0,1.207-0.152,2.46-0.415,3.724l4.229-0.855c0.401-1.844,0.621-3.67,0.621-5.429
											C296.237,160.582,296.018,159.009,295.617,157.628z"/>
									</g>
									<g id="XMLID_3_" style="opacity:0.2;">
										<path d="M286.601,156.814l2.616-5.668c-2.495-0.499-5.401,0.119-8.355,1.702v5.124
											C282.889,156.917,284.874,156.508,286.601,156.814z"/>
										<path d="M291.045,160.637l4.233-4.032c-1.031-2.667-2.843-4.451-5.17-5.211l-2.608,5.651
											C289.08,157.602,290.311,158.834,291.045,160.637z"/>
										<path d="M274.013,186.266l-2.611,5.657c2.401,0.49,5.267-0.029,8.352-1.688v-5.136
											C277.642,186.201,275.677,186.568,274.013,186.266z"/>
										<path d="M287.499,177.726l2.608,2.639c2.327-3.447,4.139-7.323,5.17-11.181l-4.233,0.856
											C290.311,172.69,289.08,175.344,287.499,177.726z"/>
										<path d="M280.862,184.459v5.136c3.085-1.904,5.952-4.694,8.352-7.956l-2.611-2.642
											C284.939,181.221,282.974,183.123,280.862,184.459z"/>
										<path d="M295.617,157.628l-4.229,4.028c0.263,0.961,0.415,2.037,0.415,3.244c0,1.207-0.152,2.46-0.415,3.724l4.229-0.855
											c0.401-1.844,0.621-3.67,0.621-5.429C296.237,160.582,296.018,159.009,295.617,157.628z"/>
									</g>
								</g>
								<g id="XMLID_169_">
									<path style="fill:#FAFAFA;" d="M279.754,158.616v-5.136c-3.085,1.904-5.952,4.694-8.352,7.956l2.611,2.642
										C275.677,161.854,277.642,159.953,279.754,158.616z"/>
								</g>
								<g id="XMLID_166_">
									<path style="fill:#FAFAFA;" d="M273.117,165.349l-2.609-2.64c-2.327,3.447-4.139,7.324-5.17,11.181l4.233-0.856
										C270.305,170.385,271.536,167.731,273.117,165.349z"/>
								</g>
								<g id="XMLID_165_">
									<path style="fill:#FAFAFA;" d="M268.813,178.174c0-1.207,0.153-2.46,0.415-3.724l-4.229,0.855
										c-0.401,1.843-0.62,3.67-0.62,5.429c0,1.759,0.219,3.332,0.62,4.712l4.229-4.028
										C268.965,180.458,268.813,179.382,268.813,178.174z"/>
								</g>
								<g id="XMLID_164_">
									<path style="fill:#FAFAFA;" d="M269.571,182.438l-4.233,4.032c1.031,2.667,2.843,4.451,5.17,5.211l2.608-5.651
										C271.536,185.473,270.305,184.241,269.571,182.438z"/>
								</g>
							</g>
						</g>
						<g>
							<path style="fill:#27DEBF;" d="M270.799,177.028c0-6.064,4.258-13.439,9.509-16.471c5.252-3.032,9.51-0.574,9.51,5.49
								c0,6.064-4.258,13.439-9.51,16.471C275.056,185.55,270.799,183.092,270.799,177.028z"/>
							<path style="opacity:0.2;" d="M270.799,177.028c0-6.064,4.258-13.439,9.509-16.471c5.252-3.032,9.51-0.574,9.51,5.49
								c0,6.064-4.258,13.439-9.51,16.471C275.056,185.55,270.799,183.092,270.799,177.028z"/>
						</g>
					</g>
					<g id="XMLID_158_">
						<path style="fill:#FAFAFA;" d="M279.366,168.41c0.026,0.397,0.026,0.788,0,1.173c-0.018,0.319-0.069,0.635-0.154,0.946
							c-0.084,0.311-0.214,0.617-0.388,0.919c-0.174,0.3-0.39,0.583-0.647,0.845c-0.26,0.263-0.563,0.494-0.909,0.695
							c-0.348,0.201-0.65,0.319-0.909,0.355c-0.259,0.036-0.473,0.002-0.643-0.1c-0.169-0.104-0.298-0.26-0.387-0.471
							c-0.089-0.211-0.144-0.466-0.161-0.765c-0.018-0.195-0.026-0.383-0.026-0.563c0-0.181,0.009-0.384,0.026-0.61
							c0.017-0.319,0.072-0.635,0.161-0.949c0.089-0.314,0.218-0.62,0.387-0.918c0.17-0.299,0.384-0.58,0.643-0.842
							c0.259-0.262,0.561-0.493,0.909-0.694c0.347-0.201,0.649-0.319,0.909-0.356c0.258-0.036,0.472-0.002,0.642,0.101
							c0.169,0.103,0.298,0.26,0.387,0.471C279.294,167.858,279.348,168.112,279.366,168.41z M282.708,164.66
							c0.062-0.129,0.127-0.238,0.193-0.328c0.066-0.09,0.163-0.171,0.287-0.243l1.097-0.633c0.098-0.057,0.176-0.073,0.234-0.05
							c0.058,0.023,0.087,0.08,0.087,0.173c0,0.02-0.005,0.049-0.014,0.085c-0.009,0.036-0.023,0.075-0.04,0.116l-6.604,13.846
							c-0.064,0.129-0.127,0.237-0.194,0.328c-0.066,0.09-0.162,0.171-0.287,0.243l-1.097,0.633
							c-0.098,0.057-0.176,0.073-0.233,0.05c-0.058-0.023-0.087-0.081-0.087-0.174c0-0.021,0.005-0.049,0.013-0.085
							c0.01-0.037,0.023-0.075,0.041-0.116L282.708,164.66z M276.719,171.034c0.018,0.257,0.064,0.432,0.141,0.521
							c0.075,0.09,0.212,0.078,0.408-0.035c0.195-0.113,0.331-0.258,0.407-0.435c0.076-0.178,0.123-0.406,0.141-0.684
							c0.026-0.354,0.026-0.694,0-1.019c-0.018-0.257-0.064-0.431-0.141-0.52c-0.076-0.09-0.212-0.079-0.407,0.034
							c-0.196,0.113-0.333,0.259-0.408,0.436c-0.076,0.178-0.122,0.405-0.141,0.683
							C276.692,170.371,276.692,170.711,276.719,171.034z M285.568,170.231c0.026,0.397,0.026,0.788,0,1.174
							c-0.019,0.319-0.069,0.634-0.153,0.945c-0.085,0.311-0.214,0.618-0.388,0.918c-0.174,0.302-0.391,0.583-0.648,0.845
							c-0.259,0.263-0.561,0.494-0.909,0.695c-0.348,0.201-0.65,0.319-0.909,0.355c-0.258,0.036-0.472,0.003-0.641-0.101
							c-0.171-0.102-0.3-0.26-0.389-0.47c-0.089-0.212-0.142-0.466-0.16-0.764c-0.019-0.195-0.026-0.384-0.026-0.563
							c0-0.18,0.008-0.383,0.026-0.61c0.018-0.319,0.071-0.635,0.16-0.949c0.089-0.314,0.218-0.62,0.389-0.919
							c0.169-0.299,0.383-0.579,0.641-0.841c0.259-0.263,0.562-0.494,0.909-0.695c0.348-0.201,0.65-0.319,0.909-0.355
							c0.258-0.036,0.472-0.003,0.642,0.1c0.169,0.102,0.299,0.259,0.388,0.471C285.497,169.679,285.55,169.934,285.568,170.231z
							 M282.922,172.856c0.018,0.257,0.064,0.431,0.141,0.521c0.075,0.09,0.211,0.078,0.407-0.035
							c0.196-0.113,0.332-0.258,0.407-0.436c0.076-0.178,0.123-0.405,0.141-0.683c0.027-0.355,0.027-0.695,0-1.02
							c-0.018-0.257-0.064-0.431-0.141-0.521c-0.075-0.09-0.211-0.079-0.407,0.034c-0.196,0.113-0.332,0.259-0.407,0.436
							c-0.076,0.178-0.123,0.405-0.141,0.683C282.895,172.192,282.895,172.532,282.922,172.856z"/>
					</g>
				</g>
			</g>
			<g id="XMLID_35_">
				<g id="XMLID_67_">
					<path style="fill:#FAFAFA;" d="M320.428,177.095v-57.44l49.745-28.72v57.44L320.428,177.095z M321.428,120.232v55.131
						l47.745-27.565V92.667L321.428,120.232z"/>
				</g>
				<g id="XMLID_68_">
					<g id="XMLID_74_">
						<g id="XMLID_76_">
							<g id="XMLID_77_">
								<g id="XMLID_84_">
									<path style="fill:#FAFAFA;" d="M344.746,121.093v-5.136c-3.085,1.904-5.952,4.694-8.352,7.956l2.611,2.642
										C340.669,124.331,342.634,122.429,344.746,121.093z"/>
								</g>
								<g id="XMLID_81_">
									<path style="fill:#FAFAFA;" d="M338.109,127.826l-2.608-2.639c-2.327,3.447-4.139,7.323-5.17,11.181l4.233-0.856
										C335.297,132.862,336.528,130.208,338.109,127.826z"/>
								</g>
								<g>
									<g id="XMLID_78_">
										<path style="fill:#27DEBF;" d="M351.594,119.291l2.616-5.668c-2.495-0.499-5.402,0.119-8.355,1.702v5.124
											C347.882,119.394,349.866,118.984,351.594,119.291z"/>
										<path style="fill:#27DEBF;" d="M356.037,123.114l4.233-4.032c-1.031-2.667-2.843-4.451-5.17-5.211l-2.608,5.651
											C354.072,120.079,355.303,121.311,356.037,123.114z"/>
										<path style="fill:#27DEBF;" d="M339.005,148.742l-2.611,5.657c2.401,0.49,5.267-0.029,8.352-1.688v-5.136
											C342.634,148.678,340.669,149.045,339.005,148.742z"/>
										<path style="fill:#27DEBF;" d="M360.609,120.105l-4.229,4.028c0.263,0.961,0.415,2.037,0.415,3.244
											c0,1.207-0.152,2.46-0.415,3.724l4.229-0.855c0.401-1.844,0.621-3.67,0.621-5.429
											C361.23,123.059,361.01,121.485,360.609,120.105z"/>
										<path style="fill:#27DEBF;" d="M352.491,140.203l2.608,2.64c2.327-3.447,4.139-7.323,5.17-11.181l-4.233,0.856
											C355.303,135.167,354.072,137.82,352.491,140.203z"/>
										<path style="fill:#27DEBF;" d="M333.805,140.651c0-1.207,0.152-2.46,0.415-3.724l-4.229,0.855
											c-0.401,1.843-0.62,3.67-0.62,5.429c0,1.759,0.219,3.332,0.62,4.713l4.229-4.028
											C333.957,142.935,333.805,141.858,333.805,140.651z"/>
										<path style="fill:#27DEBF;" d="M334.563,144.915l-4.233,4.032c1.031,2.667,2.843,4.451,5.17,5.211l2.608-5.651
											C336.528,147.95,335.297,146.718,334.563,144.915z"/>
										<path style="fill:#27DEBF;" d="M345.854,146.936v5.136c3.085-1.904,5.952-4.694,8.352-7.956l-2.611-2.642
											C349.931,143.698,347.966,145.599,345.854,146.936z"/>
									</g>
									<g id="XMLID_4_" style="opacity:0.2;">
										<path d="M351.594,119.291l2.616-5.668c-2.495-0.499-5.402,0.119-8.355,1.702v5.124
											C347.882,119.394,349.866,118.984,351.594,119.291z"/>
										<path d="M356.037,123.114l4.233-4.032c-1.031-2.667-2.843-4.451-5.17-5.211l-2.608,5.651
											C354.072,120.079,355.303,121.311,356.037,123.114z"/>
										<path d="M339.005,148.742l-2.611,5.657c2.401,0.49,5.267-0.029,8.352-1.688v-5.136
											C342.634,148.678,340.669,149.045,339.005,148.742z"/>
										<path d="M360.609,120.105l-4.229,4.028c0.263,0.961,0.415,2.037,0.415,3.244c0,1.207-0.152,2.46-0.415,3.724l4.229-0.855
											c0.401-1.844,0.621-3.67,0.621-5.429C361.23,123.059,361.01,121.485,360.609,120.105z"/>
										<path d="M352.491,140.203l2.608,2.64c2.327-3.447,4.139-7.323,5.17-11.181l-4.233,0.856
											C355.303,135.167,354.072,137.82,352.491,140.203z"/>
										<path d="M333.805,140.651c0-1.207,0.152-2.46,0.415-3.724l-4.229,0.855c-0.401,1.843-0.62,3.67-0.62,5.429
											c0,1.759,0.219,3.332,0.62,4.713l4.229-4.028C333.957,142.935,333.805,141.858,333.805,140.651z"/>
										<path d="M334.563,144.915l-4.233,4.032c1.031,2.667,2.843,4.451,5.17,5.211l2.608-5.651
											C336.528,147.95,335.297,146.718,334.563,144.915z"/>
										<path d="M345.854,146.936v5.136c3.085-1.904,5.952-4.694,8.352-7.956l-2.611-2.642
											C349.931,143.698,347.966,145.599,345.854,146.936z"/>
									</g>
								</g>
							</g>
						</g>
						<g id="XMLID_75_">
							<path style="fill:#27DEBF;" d="M335.791,139.504c0-6.064,4.257-13.439,9.509-16.471c5.252-3.032,9.51-0.574,9.51,5.49
								c0,6.064-4.258,13.439-9.51,16.471C340.049,148.027,335.791,145.569,335.791,139.504z"/>
							<path style="opacity:0.2;" d="M335.791,139.504c0-6.064,4.257-13.439,9.509-16.471c5.252-3.032,9.51-0.574,9.51,5.49
								c0,6.064-4.258,13.439-9.51,16.471C340.049,148.027,335.791,145.569,335.791,139.504z"/>
						</g>
					</g>
					<g id="XMLID_73_">
						<path style="fill:#FAFAFA;" d="M344.359,130.887c0.025,0.397,0.025,0.788,0,1.173c-0.02,0.319-0.07,0.635-0.154,0.946
							c-0.084,0.311-0.215,0.617-0.389,0.918c-0.174,0.3-0.389,0.583-0.646,0.845c-0.26,0.263-0.563,0.494-0.91,0.695
							c-0.348,0.201-0.65,0.319-0.908,0.355c-0.26,0.036-0.473,0.002-0.643-0.1c-0.17-0.104-0.299-0.26-0.387-0.471
							c-0.09-0.211-0.145-0.466-0.162-0.765c-0.018-0.195-0.025-0.383-0.025-0.563c0-0.181,0.008-0.384,0.025-0.61
							c0.017-0.319,0.072-0.635,0.162-0.949c0.088-0.314,0.217-0.62,0.387-0.918c0.17-0.299,0.383-0.58,0.643-0.842
							c0.258-0.262,0.56-0.493,0.908-0.694c0.348-0.201,0.65-0.319,0.91-0.356c0.258-0.036,0.471-0.002,0.641,0.101
							c0.17,0.103,0.299,0.26,0.387,0.471C344.287,130.335,344.34,130.589,344.359,130.887z M347.701,127.136
							c0.063-0.129,0.127-0.238,0.193-0.328c0.066-0.09,0.162-0.171,0.287-0.243l1.096-0.633c0.098-0.057,0.176-0.073,0.234-0.05
							c0.059,0.023,0.088,0.081,0.088,0.173c0,0.021-0.006,0.049-0.014,0.085c-0.01,0.036-0.023,0.075-0.041,0.116l-6.604,13.846
							c-0.063,0.129-0.127,0.237-0.193,0.328c-0.066,0.09-0.162,0.171-0.287,0.243l-1.098,0.633
							c-0.098,0.057-0.176,0.073-0.232,0.05c-0.059-0.023-0.088-0.081-0.088-0.174c0-0.021,0.006-0.049,0.014-0.085
							c0.01-0.037,0.023-0.075,0.041-0.116L347.701,127.136z M341.711,133.511c0.02,0.257,0.065,0.432,0.141,0.521
							c0.076,0.09,0.213,0.078,0.408-0.035c0.195-0.113,0.332-0.258,0.408-0.436c0.076-0.178,0.123-0.406,0.141-0.684
							c0.025-0.354,0.025-0.694,0-1.018c-0.018-0.257-0.065-0.431-0.141-0.521c-0.076-0.09-0.213-0.079-0.408,0.034
							c-0.195,0.113-0.332,0.259-0.408,0.437c-0.076,0.178-0.121,0.405-0.141,0.683
							C341.685,132.848,341.685,133.188,341.711,133.511z M350.56,132.708c0.027,0.397,0.027,0.788,0,1.174
							c-0.017,0.319-0.068,0.634-0.152,0.945c-0.086,0.311-0.215,0.618-0.389,0.918c-0.174,0.302-0.391,0.583-0.648,0.845
							c-0.258,0.263-0.561,0.494-0.908,0.695c-0.348,0.201-0.65,0.319-0.91,0.355c-0.258,0.036-0.471,0.003-0.641-0.101
							c-0.17-0.102-0.299-0.26-0.389-0.47c-0.088-0.211-0.141-0.466-0.16-0.764c-0.018-0.195-0.025-0.384-0.025-0.564
							s0.008-0.383,0.025-0.61c0.02-0.319,0.072-0.635,0.16-0.949c0.09-0.314,0.219-0.62,0.389-0.918
							c0.17-0.299,0.383-0.579,0.641-0.841c0.26-0.263,0.563-0.494,0.91-0.695c0.348-0.201,0.65-0.319,0.908-0.355
							c0.258-0.036,0.473-0.003,0.643,0.1c0.168,0.103,0.299,0.259,0.387,0.471C350.49,132.156,350.543,132.41,350.56,132.708z
							 M347.914,135.333c0.017,0.257,0.064,0.431,0.141,0.521c0.076,0.09,0.211,0.078,0.408-0.035
							c0.195-0.113,0.332-0.258,0.406-0.436c0.076-0.178,0.123-0.405,0.141-0.683c0.027-0.355,0.027-0.695,0-1.02
							c-0.018-0.257-0.065-0.431-0.141-0.52c-0.074-0.09-0.211-0.079-0.406,0.034c-0.197,0.113-0.332,0.259-0.408,0.437
							c-0.076,0.178-0.123,0.405-0.141,0.683C347.887,134.669,347.887,135.009,347.914,135.333z"/>
					</g>
				</g>
			</g>
			<g id="XMLID_69_">
				<g id="XMLID_72_">
					<polygon style="fill:#27DEBF;" points="190.943,265.371 190.944,321.656 239.688,293.513 239.688,237.228 					"/>
					<polygon style="opacity:0.7;fill:#FAFAFA;" points="190.943,265.371 190.944,321.656 239.688,293.513 239.688,237.228 					"/>
				</g>
				<g>
					<g id="XMLID_65_">
						<path style="fill:#27DEBF;" d="M190.943,280.254c1.65,0.64,3.773,0.374,6.092-0.964c5.252-3.032,9.51-10.407,9.51-16.471
							c0-2.416-0.684-4.247-1.829-5.4l-13.773,7.952V280.254z"/>
						<path style="fill:#27DEBF;" d="M212.411,281.641c0.482-1.585,1.433-1.649,2.123-0.143l6.874,15.005l10.257-38.811
							c0.423-1.602,1.13-1.607,1.579-0.013l6.444,22.91v12.925l-37.47,21.633L212.411,281.641z"/>
					</g>
					<g id="XMLID_5_" style="opacity:0.2;">
						<path d="M190.943,280.254c1.65,0.64,3.773,0.374,6.092-0.964c5.252-3.032,9.51-10.407,9.51-16.471
							c0-2.416-0.684-4.247-1.829-5.4l-13.773,7.952V280.254z"/>
						<path d="M212.411,281.641c0.482-1.585,1.433-1.649,2.123-0.143l6.874,15.005l10.257-38.811
							c0.423-1.602,1.13-1.607,1.579-0.013l6.444,22.91v12.925l-37.47,21.633L212.411,281.641z"/>
					</g>
				</g>
				<g id="XMLID_7852_">
					<path style="fill:#27DEBF;" d="M238.688,238.96v53.976l-46.744,26.988l0-53.976L238.688,238.96 M239.688,237.228
						l-48.745,28.143l0,56.285l48.744-28.143V237.228L239.688,237.228z"/>
					<path style="opacity:0.7;fill:#FAFAFA;" d="M238.688,238.96v53.976l-46.744,26.988l0-53.976L238.688,238.96 M239.688,237.228
						l-48.745,28.143l0,56.285l48.744-28.143V237.228L239.688,237.228z"/>
				</g>
			</g>
			<g id="XMLID_175_">
				<g id="XMLID_178_">
					<polygon style="fill:#27DEBF;" points="255.936,227.847 255.936,284.133 304.681,255.99 304.681,199.705 					"/>
					<polygon style="opacity:0.7;fill:#FAFAFA;" points="255.936,227.847 255.936,284.133 304.681,255.99 304.681,199.705 					"/>
				</g>
				<g>
					<g id="XMLID_177_">
						<path style="fill:#27DEBF;" d="M255.936,242.73c1.65,0.64,3.773,0.374,6.092-0.964c5.252-3.032,9.51-10.406,9.51-16.471
							c0-2.416-0.684-4.247-1.829-5.4l-13.773,7.952V242.73z"/>
						<path style="fill:#27DEBF;" d="M277.404,244.117c0.482-1.585,1.433-1.649,2.123-0.143l6.874,15.005l10.257-38.811
							c0.423-1.602,1.13-1.607,1.579-0.012l6.444,22.91v12.925l-37.47,21.633L277.404,244.117z"/>
					</g>
					<g id="XMLID_7_" style="opacity:0.2;">
						<path d="M255.936,242.73c1.65,0.64,3.773,0.374,6.092-0.964c5.252-3.032,9.51-10.406,9.51-16.471
							c0-2.416-0.684-4.247-1.829-5.4l-13.773,7.952V242.73z"/>
						<path d="M277.404,244.117c0.482-1.585,1.433-1.649,2.123-0.143l6.874,15.005l10.257-38.811
							c0.423-1.602,1.13-1.607,1.579-0.012l6.444,22.91v12.925l-37.47,21.633L277.404,244.117z"/>
					</g>
				</g>
				<g id="XMLID_7861_">
					<path style="fill:#27DEBF;" d="M303.681,201.437v53.976l-46.744,26.988l0-53.976L303.681,201.437 M304.681,199.705
						l-48.745,28.143l0,56.285l48.744-28.143V199.705L304.681,199.705z"/>
					<path style="opacity:0.7;fill:#FAFAFA;" d="M303.681,201.437v53.976l-46.744,26.988l0-53.976L303.681,201.437 M304.681,199.705
						l-48.745,28.143l0,56.285l48.744-28.143V199.705L304.681,199.705z"/>
				</g>
			</g>
			<g id="XMLID_173_">
				<g id="XMLID_181_">
					<polygon style="fill:#27DEBF;" points="320.927,190.324 320.927,246.609 369.671,218.467 369.671,162.181 					"/>
					<polygon style="opacity:0.7;fill:#FAFAFA;" points="320.927,190.324 320.927,246.609 369.671,218.467 369.671,162.181 					"/>
				</g>
				<g>
					<g id="XMLID_180_">
						<path style="fill:#27DEBF;" d="M320.927,205.207c1.65,0.64,3.774,0.374,6.092-0.965c5.252-3.032,9.51-10.406,9.51-16.471
							c0-2.416-0.684-4.247-1.829-5.4l-13.773,7.952V205.207z"/>
						<path style="fill:#27DEBF;" d="M342.395,206.594c0.482-1.585,1.433-1.649,2.123-0.143l6.875,15.004l10.257-38.811
							c0.423-1.602,1.13-1.608,1.579-0.013l6.444,22.91v12.925l-37.47,21.633L342.395,206.594z"/>
					</g>
					<g id="XMLID_8_" style="opacity:0.2;">
						<path d="M320.927,205.207c1.65,0.64,3.774,0.374,6.092-0.965c5.252-3.032,9.51-10.406,9.51-16.471
							c0-2.416-0.684-4.247-1.829-5.4l-13.773,7.952V205.207z"/>
						<path d="M342.395,206.594c0.482-1.585,1.433-1.649,2.123-0.143l6.875,15.004l10.257-38.811
							c0.423-1.602,1.13-1.608,1.579-0.013l6.444,22.91v12.925l-37.47,21.633L342.395,206.594z"/>
					</g>
				</g>
				<g id="XMLID_8010_">
					<path style="fill:#27DEBF;" d="M368.671,163.913v53.976l-46.744,26.988l0-53.976L368.671,163.913 M369.671,162.181
						l-48.745,28.143l0,56.285l48.744-28.143V162.181L369.671,162.181z"/>
					<path style="opacity:0.7;fill:#FAFAFA;" d="M368.671,163.913v53.976l-46.744,26.988l0-53.976L368.671,163.913 M369.671,162.181
						l-48.745,28.143l0,56.285l48.744-28.143V162.181L369.671,162.181z"/>
				</g>
			</g>
		</g>
		<g id="seleccion">
			<polygon style="fill:#263238;" points="363.579,181.439 377.944,185.268 373.104,187.996 381.884,194.434 380.743,196.19 
				371.704,189.723 370.495,195 			"/>
		</g>
	</g>
</g>
<g id="Speech_Bubble">
	<g id="coments">
		<g id="XMLID_184_">
			<path style="fill:#37474F;" d="M438.161,146.065l-31.362,18.107c-1.435,0.828-2.598,2.843-2.598,4.5v25.304l-7.963,8.259
				c-1.15,1.193-0.748,2.003,0.897,1.809l7.066-0.831v11.053c0,1.657,1.163,2.328,2.598,1.5l31.362-18.107
				c1.435-0.829,2.598-2.843,2.598-4.5v-45.595C440.759,145.909,439.595,145.237,438.161,146.065z"/>
		</g>
		<g id="XMLID_70_">
			<g id="XMLID_187_">
				<path style="fill:#FAFAFA;" d="M414.654,173.732l-1.322-0.105c-1.741-0.139-3.816-0.827-3.816-3.314
					c0-1.686,1.184-3.736,2.644-4.579c1.137-0.657,2.107-0.387,2.48,0.561c0.373-1.379,1.342-2.768,2.48-3.425
					c1.46-0.843,2.644-0.16,2.644,1.526c0,2.44-2.063,5.53-3.794,7.692L414.654,173.732z"/>
			</g>
		</g>
		<g id="XMLID_188_">
			<path style="fill:#FAFAFA;" d="M427.108,159.447l6.99-4.036c1.435-0.829,2.598-0.45,2.598,0.845c0,1.295-1.163,3.017-2.598,3.845
				l-6.99,4.036c-1.435,0.829-2.598,0.45-2.598-0.845C424.51,161.997,425.674,160.275,427.108,159.447z"/>
		</g>
		<g id="XMLID_190_">
			<path style="fill:#FAFAFA;" d="M412.114,181.873l6.99-4.036c1.435-0.829,2.598-0.45,2.598,0.845c0,1.295-1.163,3.017-2.598,3.845
				l-6.99,4.036c-1.435,0.828-2.598,0.45-2.598-0.845C409.516,184.423,410.679,182.702,412.114,181.873z"/>
		</g>
		<g id="XMLID_189_">
			<path style="fill:#FAFAFA;" d="M412.114,191.652l21.984-12.693c1.435-0.828,2.598-0.45,2.598,0.845
				c0,1.295-1.163,3.017-2.598,3.845l-21.984,12.693c-1.435,0.828-2.598,0.45-2.598-0.845
				C409.516,194.202,410.679,192.481,412.114,191.652z"/>
		</g>
		<g id="XMLID_37_">
			<path style="fill:#FAFAFA;" d="M412.114,200.783l21.984-12.693c1.435-0.828,2.598-0.45,2.598,0.845
				c0,1.295-1.163,3.017-2.598,3.845l-21.984,12.693c-1.435,0.828-2.598,0.45-2.598-0.845
				C409.516,203.333,410.679,201.611,412.114,200.783z"/>
		</g>
	</g>
</g>
<g id="Picture">
	<g id="image">
		<g id="XMLID_246_">
			<g id="XMLID_250_">
				<polygon style="fill:#27DEBF;" points="83.299,383.778 132.044,411.92 180.788,383.777 132.044,355.635 				"/>
				<polygon style="opacity:0.7;fill:#FAFAFA;" points="83.299,383.778 132.044,411.92 180.788,383.777 132.044,355.635 				"/>
			</g>
			<g>
				<g>
					<g id="XMLID_248_">
						<path style="fill:#27DEBF;" d="M96.188,391.219c3.029-0.157,5.985-0.902,8.303-2.241c5.252-3.032,5.252-7.949,0-10.981
							c-2.092-1.208-4.704-1.926-7.419-2.172l-13.773,7.952L96.188,391.219z"/>
					</g>
					<g id="XMLID_247_">
						<path style="fill:#27DEBF;" d="M129.591,385.716c-0.649-0.932,0.721-1.238,3.061-0.684l23.306,5.518l-18.227-22.366
							c-0.752-0.923,0.303-1.13,2.357-0.462l29.507,9.594l11.193,6.462l-37.47,21.633L129.591,385.716z"/>
					</g>
				</g>
				<g style="opacity:0.2;">
					<g id="XMLID_10_">
						<path d="M96.188,391.219c3.029-0.157,5.985-0.902,8.303-2.241c5.252-3.032,5.252-7.949,0-10.981
							c-2.092-1.208-4.704-1.926-7.419-2.172l-13.773,7.952L96.188,391.219z"/>
					</g>
					<g id="XMLID_9_">
						<path d="M129.591,385.716c-0.649-0.932,0.721-1.238,3.061-0.684l23.306,5.518l-18.227-22.366
							c-0.752-0.923,0.303-1.13,2.357-0.462l29.507,9.594l11.193,6.462l-37.47,21.633L129.591,385.716z"/>
					</g>
				</g>
			</g>
			<g id="XMLID_7758_">
				<path style="fill:#27DEBF;" d="M132.044,356.79l46.744,26.988l-46.745,26.988l-46.745-26.988L132.044,356.79 M132.044,355.635
					l-48.745,28.143l48.745,28.142l48.745-28.143L132.044,355.635L132.044,355.635z"/>
				<path style="opacity:0.7;fill:#FAFAFA;" d="M132.044,356.79l46.744,26.988l-46.745,26.988l-46.745-26.988L132.044,356.79
					 M132.044,355.635l-48.745,28.143l48.745,28.142l48.745-28.143L132.044,355.635L132.044,355.635z"/>
			</g>
		</g>
		<g id="XMLID_43_">
			<polygon style="fill:#27DEBF;" points="83.299,383.778 83.3,388.468 132.044,416.611 132.044,411.92 			"/>
			<polygon style="opacity:0.6;fill:#FAFAFA;" points="83.299,383.778 83.3,388.468 132.044,416.611 132.044,411.92 			"/>
		</g>
		<g id="XMLID_45_">
			<polygon style="fill:#27DEBF;" points="180.788,383.777 132.044,411.92 132.044,416.611 180.789,388.468 			"/>
			<polygon style="opacity:0.1;fill:#FAFAFA;" points="180.788,383.777 132.044,411.92 132.044,416.611 180.789,388.468 			"/>
		</g>
	</g>
</g>
<g id="Box">
	<g id="open_box">
		<polygon style="fill:#263238;" points="461.07,278.321 412.325,250.178 363.581,278.321 412.325,306.464 		"/>
		<polygon style="fill:#263238;" points="412.325,250.178 363.581,278.321 363.581,315.844 412.325,343.987 		"/>
		<g id="XMLID_243_">
			<g id="XMLID_32_">
				<g id="XMLID_353_">
					<polygon style="fill:#27DEBF;" points="375.773,322.884 367.648,266.599 416.393,238.456 424.517,294.742 					"/>
					<polygon style="opacity:0.7;fill:#FAFAFA;" points="375.773,322.884 367.648,266.599 416.393,238.456 424.517,294.742 					"/>
				</g>
				<g id="XMLID_351_">
					<polygon style="fill:#27DEBF;" points="367.648,266.599 362.952,265.579 370.81,320.019 375.772,322.884 					"/>
					<polygon style="opacity:0.1;fill:#FAFAFA;" points="367.648,266.599 362.952,265.579 370.81,320.019 375.772,322.884 					"/>
				</g>
				<g id="XMLID_350_">
					<polygon style="fill:#27DEBF;" points="411.696,237.437 416.393,238.456 367.648,266.599 362.952,265.579 					"/>
					<polygon style="opacity:0.6;fill:#FAFAFA;" points="411.696,237.437 416.393,238.456 367.648,266.599 362.952,265.579 					"/>
				</g>
				<g id="XMLID_34_">
					<path style="fill:#27DEBF;" d="M382.187,266.178c-0.577-2.54-2.157-4.48-4.21-5.543l-10.329,5.963l1.539,10.664
						c1.867,0.96,4.121,1.197,6.381,0.471C380.326,276.206,383.289,271.033,382.187,266.178z"/>
					<path style="opacity:0.2;" d="M382.187,266.178c-0.577-2.54-2.157-4.48-4.21-5.543l-10.329,5.963l1.539,10.664
						c1.867,0.96,4.121,1.197,6.381,0.471C380.326,276.206,383.289,271.033,382.187,266.178z"/>
				</g>
				<g id="XMLID_33_">
					<path style="fill:#27DEBF;" d="M393.222,268.526c0.311-1.627,1.152-1.739,1.878-0.25l7.182,14.739l5.473-31.507
						c0.284-1.632,1.147-1.771,1.928-0.31l11.708,21.895l3.125,21.648l-40.621,23.453
						C383.818,317.747,391.114,279.549,393.222,268.526z"/>
					<path style="opacity:0.2;" d="M393.222,268.526c0.311-1.627,1.152-1.739,1.878-0.25l7.182,14.739l5.473-31.507
						c0.284-1.632,1.147-1.771,1.928-0.31l11.708,21.895l3.125,21.648l-40.621,23.453
						C383.818,317.747,391.114,279.549,393.222,268.526z"/>
				</g>
				<g id="XMLID_7344_">
					<path style="fill:#27DEBF;" d="M415.614,240.061l7.817,54.154l-46.879,27.066l-7.817-54.154L415.614,240.061 M416.393,238.456
						l-48.744,28.143l8.125,56.286l48.744-28.143L416.393,238.456L416.393,238.456z"/>
					<path style="opacity:0.7;fill:#FAFAFA;" d="M415.614,240.061l7.817,54.154l-46.879,27.066l-7.817-54.154L415.614,240.061
						 M416.393,238.456l-48.744,28.143l8.125,56.286l48.744-28.143L416.393,238.456L416.393,238.456z"/>
				</g>
			</g>
			<g id="XMLID_395_">
				<g id="XMLID_451_">
					<polygon style="fill:#27DEBF;" points="392.018,332.263 383.894,275.978 432.638,247.835 440.762,304.121 					"/>
					<polygon style="opacity:0.7;fill:#FAFAFA;" points="392.018,332.263 383.894,275.978 432.638,247.835 440.762,304.121 					"/>
				</g>
				<g id="XMLID_407_">
					<polygon style="fill:#27DEBF;" points="383.894,275.978 379.198,274.958 387.055,329.398 392.018,332.263 					"/>
					<polygon style="opacity:0.1;fill:#FAFAFA;" points="383.894,275.978 379.198,274.958 387.055,329.398 392.018,332.263 					"/>
				</g>
				<g id="XMLID_403_">
					<polygon style="fill:#27DEBF;" points="427.942,246.816 432.638,247.835 383.894,275.978 379.198,274.958 					"/>
					<polygon style="opacity:0.6;fill:#FAFAFA;" points="427.942,246.816 432.638,247.835 383.894,275.978 379.198,274.958 					"/>
				</g>
				<g id="XMLID_401_">
					<path style="fill:#27DEBF;" d="M398.432,275.557c-0.577-2.54-2.157-4.48-4.21-5.543l-10.329,5.963l1.539,10.664
						c1.867,0.96,4.121,1.197,6.381,0.471C396.572,285.585,399.535,280.412,398.432,275.557z"/>
					<path style="opacity:0.2;" d="M398.432,275.557c-0.577-2.54-2.157-4.48-4.21-5.543l-10.329,5.963l1.539,10.664
						c1.867,0.96,4.121,1.197,6.381,0.471C396.572,285.585,399.535,280.412,398.432,275.557z"/>
				</g>
				<g id="XMLID_400_">
					<path style="fill:#27DEBF;" d="M409.468,277.905c0.311-1.627,1.152-1.739,1.878-0.25l7.182,14.739l5.473-31.507
						c0.284-1.632,1.147-1.771,1.928-0.31l11.708,21.895l3.125,21.648l-40.621,23.453
						C400.064,327.126,407.359,288.928,409.468,277.905z"/>
					<path style="opacity:0.2;" d="M409.468,277.905c0.311-1.627,1.152-1.739,1.878-0.25l7.182,14.739l5.473-31.507
						c0.284-1.632,1.147-1.771,1.928-0.31l11.708,21.895l3.125,21.648l-40.621,23.453
						C400.064,327.126,407.359,288.928,409.468,277.905z"/>
				</g>
				<g id="XMLID_241_">
					<path style="fill:#27DEBF;" d="M431.859,249.439l7.817,54.154l-46.879,27.066l-7.817-54.154L431.859,249.439 M432.638,247.835
						l-48.744,28.143l8.125,56.286l48.744-28.143L432.638,247.835L432.638,247.835z"/>
					<path style="opacity:0.7;fill:#FAFAFA;" d="M431.859,249.439l7.817,54.154l-46.879,27.066l-7.817-54.154L431.859,249.439
						 M432.638,247.835l-48.744,28.143l8.125,56.286l48.744-28.143L432.638,247.835L432.638,247.835z"/>
				</g>
			</g>
		</g>
		<g id="XMLID_242_">
			<polygon style="fill:#37474F;" points="412.326,343.987 461.07,315.845 461.07,278.321 412.325,306.464 			"/>
		</g>
		<g id="XMLID_7267_">
			<path style="fill:#455A64;" d="M412.325,306.464l-48.745-28.143v37.524l48.745,28.143L412.325,306.464z M391.448,303.791
				l-6.99-4.036c-1.435-0.828-2.598-2.55-2.598-3.845c0-1.295,1.163-1.674,2.598-0.845l6.99,4.036
				c1.435,0.828,2.598,2.55,2.598,3.845C394.046,304.241,392.883,304.619,391.448,303.791z"/>
		</g>
		<g id="XMLID_42_">
			
				<rect x="414.648" y="290.76" transform="matrix(0.866 -0.5 0.5 0.866 -92.1503 261.9836)" style="fill:#455A64;" width="56.285" height="24.372"/>
		</g>
		<g id="XMLID_7391_">
			<polygon style="fill:#263238;" points="363.58,287.702 359.519,290.047 363.581,278.321 			"/>
		</g>
	</g>
</g>
<g id="Cloud">
	<g id="cloud">
		<path style="fill:#F0F0F0;" d="M189.314,104.084l-3.147,1.21v-6.933c0-5.496-4.384-6.814-9.143-4.066h0
			c-4.76,2.748-8.618,9.431-8.618,14.927v1.007c-1.08-0.431-2.475-0.264-3.999,0.617l0,0c-3.425,1.978-6.202,6.787-6.202,10.742
			v0.458l-4.388,2.534c-2.256,1.302-4.084,4.469-4.084,7.074c0,2.604,1.828,3.66,4.084,2.358l35.498-20.495
			c2.256-1.302,4.084-4.469,4.084-7.074S191.57,102.782,189.314,104.084z"/>
	</g>
</g>
<g id="Character">
	<g id="Girl">
		<g id="XMLID_399_">
			<g id="XMLID_6419_">
				<path style="fill:#FFA8A7;" d="M259.184,371.933l-0.189-6.049l5.018-0.867l0.289,5.161c0.24,1.203,1.093,1.596,1.304,2.272
					c0.211,0.677-3.411,7.605-5.455,9.134s-5.357-0.432-5.681-1.168c-0.325-0.736,2.734-0.19,3.229-1.243
					C258.366,377.751,259.184,371.933,259.184,371.933z"/>
			</g>
			<g id="XMLID_5952_">
				<path style="fill:#263238;" d="M264.742,371.182c-0.662,0.551-1.165,1.937-2.07,3.834c-0.905,1.897-2.203,4.979-3.612,5.418
					c-1.64,0.512-4.861-0.425-2.807-0.58c0.449-0.034,1.234-0.206,1.444-0.68c0.16-0.36,0.197-0.526,0.197-0.526
					s-0.737,0.265-2.189,0.203c-1.26-0.055-2.193,0.236-2.852,1.23c-0.34,0.512,0.208,1.369,0.208,1.369
					c0.624,0.775,1.802,1.537,4.5,1.745c2.598,0.2,4.302-0.195,5.271-2.029c1.176-2.226,3.258-4.588,4.095-5.838
					C267.941,373.813,266.309,371.586,264.742,371.182z"/>
			</g>
			<g id="XMLID_237_">
				<path style="fill:#FFA8A7;" d="M257.861,378.758c-0.164,0.416-1.349,0.54-1.946,0.62c-0.598,0.08-0.875,0.629,0.086,0.938
					C257.662,380.493,258.478,378.726,257.861,378.758z"/>
			</g>
		</g>
		<g id="XMLID_405_">
			<g id="XMLID_505_">
				<path style="fill:#FFA8A7;" d="M306.588,352.366l-4.154-4.402l3.18-3.978l3.64,3.67c0.978,0.741,1.876,0.469,2.483,0.835
					c0.607,0.366,2.492,7.954,1.978,10.454c-0.515,2.5-4.295,3.23-5.026,2.895c-0.731-0.335,1.92-1.956,1.591-3.072
					C309.835,357.263,306.588,352.366,306.588,352.366z"/>
			</g>
			<g id="XMLID_503_">
				<path style="fill:#263238;" d="M310.249,348.117c-0.13,0.852,0.413,2.222,0.994,4.242c0.581,2.02,1.654,5.187,0.892,6.45
					c-0.888,1.471-3.919,2.906-2.485,1.428c0.313-0.323,0.787-0.972,0.629-1.467c-0.119-0.376-0.202-0.524-0.202-0.524
					s-0.375,0.688-1.504,1.604c-0.979,0.795-1.484,1.631-1.318,2.812c0.085,0.609,1.064,0.886,1.064,0.886
					c0.981,0.166,2.368-0.045,4.525-1.68c2.077-1.574,3.09-3,2.598-5.015c-0.597-2.445-0.606-5.594-0.809-7.085
					C314.388,347.963,311.689,347.38,310.249,348.117z"/>
			</g>
			<g id="XMLID_406_">
				<path style="fill:#FFA8A7;" d="M310.126,358.35c0.153,0.42-0.651,1.299-1.046,1.755c-0.394,0.456-0.237,1.051,0.687,0.645
					C311.128,359.782,310.566,357.918,310.126,358.35z"/>
			</g>
		</g>
		<g id="XMLID_239_">
			<path style="fill:#FFA8A7;" d="M272.89,259.723c1.326-4.618,0.493-7.434-0.53-11.43c-1.876-7.327-3.658-14.673-3.658-14.673
				s-1.331-27.883-1.39-30.424c-0.071-3.018-0.646-4.672-0.897-7.219c-0.142-1.44-1.175-1.583-1.076-1.534v5.639
				c0,0-1.664-1.494-2.605-2.629c-0.941-1.136-1.893-1.01-2.197-0.43c-0.305,0.58,1.256,1.682,1.991,3.151
				c0.735,1.469,2.812,4.222,2.812,4.222v15.244l-4.015,2.318l-0.788,14.562l6.226,22.649L272.89,259.723z"/>
		</g>
		<g id="XMLID_14449_">
			<polygon style="fill:#FFA8A7;" points="254.735,250.146 255.598,257.729 263.071,258.592 261.993,248.531 			"/>
		</g>
		<g id="XMLID_257_">
			<g id="XMLID_232_">
				<g id="XMLID_254_">
					<polygon style="fill:#27DEBF;" points="216.593,191.497 216.594,247.782 265.338,219.639 265.338,163.354 					"/>
					<polygon style="opacity:0.7;fill:#FAFAFA;" points="216.593,191.497 216.594,247.782 265.338,219.639 265.338,163.354 					"/>
				</g>
				<g id="XMLID_249_">
					<path style="fill:#27DEBF;" d="M216.593,206.38c1.65,0.64,3.774,0.374,6.092-0.964c5.252-3.032,9.51-10.407,9.51-16.471
						c0-2.416-0.684-4.247-1.829-5.4l-13.773,7.952V206.38z"/>
					<path style="opacity:0.2;" d="M216.593,206.38c1.65,0.64,3.774,0.374,6.092-0.964c5.252-3.032,9.51-10.407,9.51-16.471
						c0-2.416-0.684-4.247-1.829-5.4l-13.773,7.952V206.38z"/>
				</g>
				<g id="XMLID_240_">
					<path style="fill:#27DEBF;" d="M238.061,207.767c0.482-1.585,1.433-1.649,2.123-0.143l6.874,15.005l10.257-38.811
						c0.423-1.602,1.13-1.607,1.579-0.012l6.444,22.91v12.925l-37.47,21.633L238.061,207.767z"/>
					<path style="opacity:0.2;" d="M238.061,207.767c0.482-1.585,1.433-1.649,2.123-0.143l6.874,15.005l10.257-38.811
						c0.423-1.602,1.13-1.607,1.579-0.012l6.444,22.91v12.925l-37.47,21.633L238.061,207.767z"/>
				</g>
				<g id="XMLID_238_">
					<path style="fill:#27DEBF;" d="M264.338,165.086v53.976l-46.744,26.988l0-53.976L264.338,165.086 M265.338,163.354
						l-48.745,28.143l0,56.285l48.744-28.143V163.354L265.338,163.354z"/>
					<path style="opacity:0.7;fill:#FAFAFA;" d="M264.338,165.086v53.976l-46.744,26.988l0-53.976L264.338,165.086 M265.338,163.354
						l-48.745,28.143l0,56.285l48.744-28.143V163.354L265.338,163.354z"/>
				</g>
			</g>
			<g id="XMLID_255_">
				<polygon style="fill:#27DEBF;" points="216.594,247.782 212.531,245.437 212.531,189.151 216.593,191.497 				"/>
				<polygon style="opacity:0.1;fill:#FAFAFA;" points="216.594,247.782 212.531,245.437 212.531,189.151 216.593,191.497 				"/>
			</g>
			<g id="XMLID_256_">
				<polygon style="fill:#27DEBF;" points="212.531,189.151 261.275,161.009 265.338,163.354 216.593,191.497 				"/>
				<polygon style="opacity:0.6;fill:#FAFAFA;" points="212.531,189.151 261.275,161.009 265.338,163.354 216.593,191.497 				"/>
			</g>
		</g>
		<g id="XMLID_605_">
			<path style="fill:#FFA8A7;" d="M272.89,259.723c-0.13,0.65-0.43,1.93-1.03,4.09c-1.1,3.97-2.76,9.67-3.47,11.56
				c-0.04,0.08-0.06,0.15-0.09,0.21l2.95,4.8c0,0-1.98,2.45-7.86,4.16c-5.89,1.71-13.03-1.76-13.03-1.76s-1.51-7.92-1.79-10.14
				c-0.02-0.13-0.05-0.33-0.08-0.56c-0.06-0.47-0.12-0.89-0.21-1.28c-0.01-0.04-0.01-0.07-0.02-0.11c-0.11-0.48-0.19-1.12-0.33-1.83
				c-0.38-1.9-1.16-4.35-3.91-5.84c-0.83-0.45-18.06-7.27-20.78-8.93c-2.21-1.34-2.39-2.54-2.76-3.59
				c-0.38-1.05-5.62-18.35-6.24-20.07s-1.19-2.25-2.56-3.71c-1.36-1.46-1.84-1.79-2.26-3.1c-0.42-1.35,0.11-1.63,0.32-2.28
				c0.29-0.9-0.04-1.53,0.16-2.21c0.25-0.85,0.77-1.07,0.9-1.45c0.2-0.6-0.04-0.93,0.35-2.02c0.13-0.38,0.61-1.07,1.38-1.45v1.97
				c0.75,3.07,4.12,4.58,4.55,4.36c0.43-0.22,1.06-1.97,2-2.74c0.91-0.75,2.24-0.67,1.76,0.26c-0.27,0.54-0.89,2.55-1.21,3.44
				c-0.32,0.89-1.27,2.76-1.06,4.19c0.27,1.91,9.15,21.6,9.15,21.6s9.65,3.16,17.31,5.54c4.75,1.48,8.66,2.39,8.66,2.39
				c0.53-0.09,1.36-0.24,2.37-0.42c0.28-0.06,0.58-0.11,0.89-0.16c3.95-0.73,9.92-1.83,11.54-2.12c0.15-0.03,0.29-0.05,0.42-0.08
				c0.37-0.04,0.76-0.02,1.14,0.04c1.18,0.29,2.1,1.32,2.44,2.08C273.14,256.003,273.36,257.273,272.89,259.723z"/>
		</g>
		<g id="XMLID_4882_">
			<path style="fill:#37474F;" d="M256.169,286.809c0,0,14.518,35.457,15.837,38.703c1.32,3.246,2.686,4.303,4.632,5.649
				c1.946,1.345,27.229,18.755,27.229,18.755c3.872-1.607,3.951-4.127,3.951-4.127s-13.06-16.648-15.782-19.046
				c-2.724-2.399-7.86-3.625-7.86-3.625l-6.437-26.963c-0.854-4.143-0.326-8.722-6.49-15.777l0,0L256.169,286.809z"/>
		</g>
		<g id="XMLID_14454_">
			<path style="fill:#37474F;" d="M260.715,284.826c2.952,4.163,5.745,7.821,6.524,12.616c1.645,10.125-2.328,22.486-2.806,30.05
				c0,0,2.381,3.583,2.56,7.556c0.14,3.111-2.598,31.739-2.598,31.739s-2.645,1.554-5.56,0.973c0,0-6.105-41.369-7.271-54.822
				c-1.165-13.453-1.208-30.151-1.208-30.151L260.715,284.826z"/>
		</g>
		<g id="XMLID_6189_">
			<path style="fill:#263238;" d="M249.923,238.877c0,0-1.385-3.157,1.036-6.421c2.853-3.846,8.272-5.487,14.021-3.497
				c2.85,0.986,6.333,4.239,6.237,11.267c-0.059,4.318-12.239,6.636-12.175,9.6L249.923,238.877z"/>
		</g>
		<g id="XMLID_6146_">
			<path style="fill:#F28F8F;" d="M249.549,240.491c0,0-1.812,2.493-1.603,2.774c0.21,0.281,1.277,0.618,1.277,0.618
				L249.549,240.491z"/>
		</g>
		<g id="XMLID_6101_">
			<path style="fill:#FFA8A7;" d="M255.099,232.583c-1.689,0.78-4.612,2.231-5.615,8.281c-1.029,6.211-0.028,8.259,0.787,9.115
				c0.55,0.578,3.646,0.718,5.214,0.307c1.962-0.515,6.4-2.028,8.508-5.164c2.479-3.69,3.18-8.722,0.599-10.822
				C260.959,231.346,256.529,231.922,255.099,232.583z"/>
		</g>
		<g id="XMLID_14455_">
			<path style="fill:#37474F;" d="M250.355,282.787l20.893-2.409c1.477,2.409,5.004,6.529,4.255,10.488
				c-0.909,4.797-3.49,8.169-11.385,10.516"/>
		</g>
		<g id="XMLID_556_">
			<path style="fill:#FAFAFA;" d="M270.995,266.883c-1.062,3.93-1.931,6.696-2.605,8.49c-0.04,0.08-0.06,0.15-0.09,0.21l2.95,4.8
				c0,0-1.98,2.45-7.86,4.16c-5.89,1.71-13.03-1.76-13.03-1.76s-1.51-7.92-1.79-10.14c-0.02-0.13-0.05-0.33-0.08-0.56
				c-0.06-0.37-0.13-0.82-0.21-1.28c-0.01-0.04-0.01-0.07-0.02-0.11c-0.13-0.79-0.27-1.56-0.33-1.83
				c7.53-3.36,5.76-13.64,5.76-13.64c0.53-0.09,1.36-0.24,2.37-0.42c0.28-0.05,0.58-0.1,0.89-0.16
				c3.45-0.61,5.911-1.076,9.031-1.686C266.13,252.927,272.724,260.481,270.995,266.883z"/>
		</g>
		<g id="XMLID_612_">
			<path style="fill:#F0F0F0;" d="M269,273.552c-0.075,0.173-5.817,3.448-7.554,3.928c2.74-0.136,5.016-0.78,6.858-1.9L269,273.552z
				"/>
		</g>
		<g id="XMLID_611_">
			<path style="fill:#263238;" d="M254.6,232.822c0,0-1.691,5.633-0.125,9.309c0,0,1.108-2.178,2.99-1.456
				c1.895,0.727,1.606,3.284,0.034,4.528c-1.572,1.244-3.011,0.501-3.011,0.501s0.056,2.931,1.9,4.977c0,0,6.168,2.49,11.498-2.727
				c4.836-4.734,4.632-13.605-2.076-16.172C259.103,229.216,254.6,232.822,254.6,232.822z"/>
		</g>
		<g id="XMLID_6606_">
			<path style="fill:#263238;" d="M266.751,312.66l1.705-13.753c0,0,4.974-1.9,7.15-4.836c0,0-1.019,3.454-4.991,6.217
				c-0.345,0.432-2.98,14.531-2.98,14.531L266.751,312.66z"/>
		</g>
		<g id="XMLID_14448_">
			<path style="fill:#263238;" d="M274.325,238.465c-2.314,0.993-4.07-0.834-5.333-3.775c-1.263-2.942-1.553-5.884,0.761-6.877
				c2.314-0.993,5.095,0.88,6.358,3.822C277.374,234.576,276.639,237.472,274.325,238.465z"/>
		</g>
		<g id="XMLID_31_">
			<path style="fill:#FFA8A7;" d="M265.338,200.081c0,0-1.018-0.545-1.718-1.598c-0.7-1.053-1.697-1.482-2.299-1.147
				c-0.446,0.248,0.079,0.978,0.408,1.636c0.329,0.658,1.08,2.502,2.008,3.365c0.929,0.863,1.601,1.077,1.601,2.059
				c0,0,0.78-0.744,0.753-2.1C266.063,200.939,265.338,200.081,265.338,200.081z"/>
		</g>
	</g>
</g>
</svg>
